<svg xmlns="http://www.w3.org/2000/svg" viewBox="0 0 94.58 117.18"><defs><style>.cls-1{fill:#e60013;}.cls-2{fill:none;stroke:#000;stroke-miterlimit:10;stroke-width:0.5px;}</style></defs><title>selected</title><g id="레이어_1" data-name="레이어 1"><path class="cls-1" d="M29.73,1.93c-6.8,5.4-7.4,13.7-10.7,18.9S8.93,31.93,7.23,36,7.43,49,6,52s-6.5,11.1-6,17.5,3.7,13,4.6,17.8.4,10,3,13,5.2,5.9,9.3,7.6,8,6.9,12.3,8.4,9.4,1.1,17-1.9,16.3-7.8,19.7-7.8,14.6.4,21.9-4.3,7.8-19.9,5.6-26.2-8.2-22.3-10.8-26.7-7.4-6.3-7.1-10.8,2.6-13.9,1.1-20.3S69.93,3,64,2.63s-12.1,1.2-16.2-.4-13.4-4-18.1-.3"/></g><g id="Layer_2" data-name="Layer 2"><rect class="cls-2" x="-500.21" y="-5.18" width="1000" height="1000"/><line class="cls-2" x1="-500.21" y1="94.82" x2="499.79" y2="94.82"/><line class="cls-2" x1="-0.21" y1="-5.18" x2="-0.21" y2="994.82"/></g></svg>