<?xml version="1.0" encoding="utf-8"?>
<!-- Generator: Adobe Illustrator 23.0.4, SVG Export Plug-In . SVG Version: 6.00 Build 0)  -->
<svg version="1.1" id="레이어_1" xmlns="http://www.w3.org/2000/svg" xmlns:xlink="http://www.w3.org/1999/xlink" x="0px"
	 y="0px" viewBox="0 0 1000 1000" style="enable-background:new 0 0 1000 1000;" xml:space="preserve">
<style type="text/css">
	.st0{fill:#E60013;}
	.st1{fill:#FFF100;}
	.st2{fill:#0D3388;}
</style>
<g>
	<rect x="137.8" y="121.6" class="st0" width="243.8" height="12.3"/>
	<rect x="137.8" y="147" class="st0" width="243.8" height="12.3"/>
	<rect x="137.8" y="172.5" class="st0" width="243.8" height="12.3"/>
	<rect x="137.8" y="198" class="st0" width="243.8" height="12.3"/>
</g>
<polygon class="st0" points="191.5,822.2 199.3,835.6 210.1,824.5 214.5,839.3 227.6,831.1 228.3,846.5 243,841.6 239.9,856.8 
	255.4,855.6 248.8,869.5 264.1,872.1 254.3,884.1 268.6,890.2 256.2,899.5 268.6,908.8 254.3,914.9 264.1,926.9 248.8,929.4 
	255.4,943.4 239.9,942.2 243,957.3 228.3,952.5 227.6,967.9 214.5,959.7 210.1,974.5 199.3,963.4 191.5,976.7 183.7,963.4 
	173,974.5 168.6,959.7 155.5,967.9 154.8,952.5 140.1,957.3 143.1,942.2 127.7,943.4 134.3,929.4 119,926.9 128.7,914.9 
	114.5,908.8 126.9,899.5 114.5,890.2 128.7,884.1 119,872.1 134.3,869.5 127.7,855.6 143.1,856.8 140.1,841.6 154.8,846.5 
	155.5,831.1 168.6,839.3 173,824.5 183.7,835.6 "/>
<rect x="437.7" y="813.9" class="st0" width="260.4" height="122.3"/>
<polygon class="st0" points="321.5,245.2 382.4,352.8 260.7,352.8 "/>
<path class="st0" d="M509.8,102.7c-6.8,5.4-7.4,13.7-10.7,18.9c-3.2,5.2-10.1,11.1-11.8,15.2c-1.7,4.1,0.2,13-1.2,16
	c-1.4,3-6.5,11.1-6,17.5c0.5,6.3,3.7,13,4.6,17.8c0.9,4.8,0.4,10,3,13c2.6,3,5.2,5.9,9.3,7.6c4.1,1.7,8,6.9,12.3,8.4
	c4.4,1.5,9.4,1.1,17-1.9c7.6-3,16.3-7.8,19.7-7.8s14.6,0.4,21.9-4.3c7.3-4.6,7.8-19.9,5.6-26.2c-2.2-6.3-8.2-22.3-10.8-26.7
	c-2.6-4.5-7.4-6.3-7.1-10.8c0.4-4.5,2.6-13.9,1.1-20.3c-1.5-6.4-6.7-15.3-12.6-15.7c-5.9-0.4-12.1,1.2-16.2-0.4
	C523.8,101.5,514.5,99,509.8,102.7"/>
<polygon class="st0" points="42.7,287.1 188.3,287.1 115.1,330.7 "/>
<rect x="726.5" y="664" class="st0" width="31.9" height="117.2"/>
<g>
	<path class="st0" d="M946.2,411.6c0-8.5,6.8-15.4,15.2-15.4c8.4,0,15.2,6.9,15.2,15.4c0,8.5-6.8,15.4-15.2,15.4
		C953,426.9,946.2,420,946.2,411.6"/>
	<path class="st0" d="M938.6,458.2c0-10.6,8.5-19.2,19-19.2c10.5,0,19,8.6,19,19.2c0,10.6-8.5,19.2-19,19.2
		C947.1,477.5,938.6,468.9,938.6,458.2"/>
	<path class="st0" d="M908.1,646.7c0-19.1,15.3-34.6,34.2-34.6c18.9,0,34.2,15.5,34.2,34.6s-15.3,34.6-34.2,34.6
		C923.5,681.3,908.1,665.8,908.1,646.7"/>
	<path class="st0" d="M885.3,739.5c0-25.5,20.4-46.1,45.6-46.1c25.2,0,45.6,20.6,45.6,46.1c0,25.5-20.4,46.1-45.6,46.1
		C905.8,785.6,885.3,765,885.3,739.5"/>
	<path class="st0" d="M927.9,575.4c0-13.6,10.9-24.6,24.3-24.6s24.3,11,24.3,24.6c0,13.6-10.9,24.6-24.3,24.6S927.9,589,927.9,575.4
		"/>
	<path class="st0" d="M927.9,514.1c0-13.6,10.9-24.6,24.3-24.6s24.3,11,24.3,24.6c0,13.6-10.9,24.6-24.3,24.6
		S927.9,527.7,927.9,514.1"/>
	<path class="st0" d="M953.8,372.6c0-6.4,5.1-11.5,11.4-11.5c6.3,0,11.4,5.2,11.4,11.5c0,6.4-5.1,11.5-11.4,11.5
		C958.9,384.1,953.8,378.9,953.8,372.6"/>
</g>
<path class="st1" d="M209.6,33.5c0,6.2-5.1,11.3-11.3,11.3c-6.2,0-11.3-5.1-11.3-11.3c0-6.2,5.1-11.3,11.3-11.3
	C204.5,22.2,209.6,27.3,209.6,33.5"/>
<path class="st1" d="M253.7,33.5c0,6.2-5.1,11.3-11.3,11.3c-6.2,0-11.3-5.1-11.3-11.3c0-6.2,5.1-11.3,11.3-11.3
	C248.7,22.2,253.7,27.3,253.7,33.5"/>
<path class="st1" d="M275.2,56.1c0,6.2-5.1,11.3-11.3,11.3c-6.2,0-11.3-5.1-11.3-11.3c0-6.2,5.1-11.3,11.3-11.3
	C270.2,44.8,275.2,49.9,275.2,56.1"/>
<path class="st1" d="M296.8,56.1c0,6.2-5.1,11.3-11.3,11.3c-6.2,0-11.3-5.1-11.3-11.3c0-6.2,5.1-11.3,11.3-11.3
	C291.7,44.8,296.8,49.9,296.8,56.1"/>
<path class="st1" d="M318.3,56.1c0,6.2-5.1,11.3-11.3,11.3c-6.2,0-11.3-5.1-11.3-11.3c0-6.2,5.1-11.3,11.3-11.3
	C313.2,44.8,318.3,49.9,318.3,56.1"/>
<path class="st1" d="M146.5,56.1c0,6.2-5.1,11.3-11.3,11.3s-11.3-5.1-11.3-11.3c0-6.2,5.1-11.3,11.3-11.3S146.5,49.9,146.5,56.1"/>
<path class="st1" d="M168,56.1c0,6.2-5.1,11.3-11.3,11.3s-11.3-5.1-11.3-11.3c0-6.2,5.1-11.3,11.3-11.3S168,49.9,168,56.1"/>
<path class="st1" d="M189.5,56.1c0,6.2-5.1,11.3-11.3,11.3s-11.3-5.1-11.3-11.3c0-6.2,5.1-11.3,11.3-11.3S189.5,49.9,189.5,56.1"/>
<path class="st1" d="M51.4,59.9c0,12.5-10.1,22.6-22.6,22.6S6.2,72.4,6.2,59.9c0-12.5,10.1-22.6,22.6-22.6S51.4,47.4,51.4,59.9"/>
<path class="st1" d="M96.6,59.9c0,12.5-10.1,22.6-22.6,22.6c-12.5,0-22.6-10.1-22.6-22.6c0-12.5,10.1-22.6,22.6-22.6
	C86.5,37.3,96.6,47.4,96.6,59.9"/>
<path class="st1" d="M232.2,33.5c0,6.2-5.1,11.3-11.3,11.3s-11.3-5.1-11.3-11.3c0-6.2,5.1-11.3,11.3-11.3S232.2,27.3,232.2,33.5"/>
<path class="st1" d="M126.8,33.5c0,6.2-5.1,11.3-11.3,11.3c-6.2,0-11.3-5.1-11.3-11.3c0-6.2,5.1-11.3,11.3-11.3
	C121.7,22.2,126.8,27.3,126.8,33.5"/>
<path class="st1" d="M105.3,33.5c0,6.2-5.1,11.3-11.3,11.3c-6.2,0-11.3-5.1-11.3-11.3c0-6.2,5.1-11.3,11.3-11.3
	C100.2,22.2,105.3,27.3,105.3,33.5"/>
<g>
	<rect x="719.9" y="213.7" class="st1" width="76.9" height="102.2"/>
	<rect x="798.4" y="213.8" class="st1" width="76.9" height="102.2"/>
	<rect x="876.9" y="100.5" class="st1" width="58" height="87.7"/>
	<rect x="802.8" y="84.5" class="st1" width="48.5" height="103.6"/>
	<rect x="641.9" y="357.6" class="st1" width="63" height="86.3"/>
	<rect x="730.8" y="339.8" class="st1" width="69.6" height="104.2"/>
	<rect x="826.3" y="413.6" class="st1" width="88.3" height="29.9"/>
	<rect x="662.3" y="129" class="st1" width="86.3" height="59.3"/>
	<rect x="826.3" y="413.6" class="st1" width="88.3" height="29.9"/>
</g>
<g>
	<g>
		<g>
			<path class="st1" d="M373.4,546.6c21.6,0,39.1-17.5,39.1-39.1c0-21.6-17.5-39.1-39.1-39.1c-21.6,0-39.2,17.5-39.2,39.1
				C334.3,529.1,351.8,546.6,373.4,546.6"/>
		</g>
	</g>
	<g>
		<g>
			<path class="st1" d="M289.8,546.6c21.6,0,39.1-17.5,39.1-39.1c0-21.6-17.5-39.1-39.1-39.1c-21.6,0-39.1,17.5-39.1,39.1
				C250.6,529.1,268.2,546.6,289.8,546.6"/>
		</g>
	</g>
	<g>
		<g>
			<path class="st1" d="M399.5,453.8c12.6,0,22.8-10.2,22.8-22.8c0-12.6-10.2-22.8-22.8-22.8c-12.6,0-22.8,10.2-22.8,22.8
				C376.7,443.6,386.9,453.8,399.5,453.8"/>
		</g>
	</g>
	<g>
		<g>
			<path class="st1" d="M345.9,453.8c12.6,0,22.8-10.2,22.8-22.8c0-12.6-10.2-22.8-22.8-22.8c-12.6,0-22.8,10.2-22.8,22.8
				C323.1,443.6,333.3,453.8,345.9,453.8"/>
		</g>
	</g>
</g>
<g>
	<g>
		<g>
			<path class="st1" d="M559.9,696c0,9.3-7.5,16.8-16.8,16.8c-9.3,0-16.8-7.5-16.8-16.8s7.5-16.8,16.8-16.8
				C552.4,679.3,559.9,686.8,559.9,696 M620.9,696c0-43-34.8-77.8-77.8-77.8c-16.1,0-31,4.9-43.4,13.3l-8.5,122.4
				c13.8,12.4,32,19.9,51.9,19.9C586.1,773.8,620.9,739,620.9,696"/>
		</g>
	</g>
</g>
<g>
	<path class="st2" d="M631,299.5c-3.2-3.2-10.3-1.6-17.9,3.4c-0.2-1.4-0.7-2.6-1.6-3.4c-3.2-3.2-10.3-1.6-17.9,3.4
		c-0.2-1.4-0.7-2.6-1.6-3.4c-3.2-3.2-10.3-1.6-17.9,3.4c-0.2-1.4-0.7-2.6-1.6-3.4c-3.2-3.2-10.3-1.6-17.9,3.4
		c-0.2-1.4-0.7-2.6-1.6-3.4c-3.2-3.2-10.3-1.6-17.9,3.4c-0.2-1.4-0.7-2.6-1.6-3.4c-3.2-3.2-10.3-1.6-17.9,3.4
		c-0.2-1.4-0.7-2.6-1.6-3.4c-3.2-3.2-10.3-1.6-17.9,3.4c-0.2-1.4-0.7-2.6-1.6-3.4c-4.4-4.4-16.4,0.4-26.7,10.7
		c-10.3,10.3-15.1,22.3-10.7,26.8c3.2,3.2,10.3,1.6,17.9-3.4c0.2,1.4,0.7,2.6,1.6,3.4c3.2,3.2,10.3,1.6,17.9-3.4
		c0.2,1.4,0.7,2.6,1.6,3.4c3.2,3.2,10.3,1.6,17.9-3.4c0.2,1.4,0.7,2.6,1.6,3.4c3.2,3.2,10.3,1.6,17.9-3.4c0.2,1.4,0.7,2.6,1.6,3.4
		c3.2,3.2,10.3,1.6,17.9-3.4c0.2,1.4,0.7,2.6,1.6,3.4c3.2,3.2,10.3,1.6,17.9-3.4c0.2,1.4,0.7,2.6,1.6,3.4c3.2,3.2,10.3,1.6,17.9-3.4
		c0.2,1.4,0.7,2.6,1.6,3.4c4.4,4.4,16.4-0.4,26.8-10.7C630.7,315.9,635.5,304,631,299.5z"/>
</g>
<g>
	<path class="st2" d="M104.3,565c0,5.6-4.5,10.2-10.2,10.2c-5.6,0-10.2-4.5-10.2-10.2c0-5.6,4.5-10.2,10.2-10.2
		C99.8,554.8,104.3,559.4,104.3,565"/>
	<path class="st2" d="M124.6,565c0,5.6-4.5,10.2-10.2,10.2c-5.6,0-10.2-4.5-10.2-10.2c0-5.6,4.5-10.2,10.2-10.2
		C120.1,554.8,124.6,559.4,124.6,565"/>
	<path class="st2" d="M143.9,565c0,5.6-4.5,10.2-10.2,10.2c-5.6,0-10.2-4.5-10.2-10.2c0-5.6,4.5-10.2,10.2-10.2
		C139.4,554.8,143.9,559.4,143.9,565"/>
	<path class="st2" d="M163.2,565c0,5.6-4.5,10.2-10.2,10.2c-5.6,0-10.2-4.5-10.2-10.2c0-5.6,4.5-10.2,10.2-10.2
		C158.7,554.8,163.2,559.4,163.2,565"/>
	<path class="st2" d="M182.5,565c0,5.6-4.5,10.2-10.2,10.2c-5.6,0-10.2-4.5-10.2-10.2c0-5.6,4.5-10.2,10.2-10.2
		C178,554.8,182.5,559.4,182.5,565"/>
	<path class="st2" d="M201.8,565c0,5.6-4.5,10.2-10.2,10.2c-5.6,0-10.2-4.5-10.2-10.2c0-5.6,4.5-10.2,10.2-10.2
		C197.3,554.8,201.8,559.4,201.8,565"/>
	<path class="st2" d="M221.1,565c0,5.6-4.5,10.2-10.2,10.2c-5.6,0-10.2-4.5-10.2-10.2c0-5.6,4.5-10.2,10.2-10.2
		C216.6,554.8,221.1,559.4,221.1,565"/>
	<path class="st2" d="M240.4,565c0,5.6-4.5,10.2-10.2,10.2c-5.6,0-10.2-4.5-10.2-10.2c0-5.6,4.5-10.2,10.2-10.2
		C235.9,554.8,240.4,559.4,240.4,565"/>
	<path class="st2" d="M259.7,571.2c0,5.6-4.5,10.2-10.2,10.2c-5.6,0-10.2-4.5-10.2-10.2c0-5.6,4.5-10.2,10.2-10.2
		C255.2,561,259.7,565.6,259.7,571.2"/>
	<path class="st2" d="M396.3,612.7c0,5.6-4.5,10.2-10.2,10.2c-5.6,0-10.2-4.5-10.2-10.2c0-5.6,4.5-10.2,10.2-10.2
		C391.8,602.5,396.3,607.1,396.3,612.7"/>
	<path class="st2" d="M377,606.9c0,5.6-4.5,10.2-10.2,10.2c-5.6,0-10.2-4.5-10.2-10.2c0-5.6,4.5-10.2,10.2-10.2
		C372.4,596.7,377,601.2,377,606.9"/>
	<path class="st2" d="M357.6,601.1c0,5.6-4.5,10.2-10.2,10.2c-5.6,0-10.2-4.5-10.2-10.2c0-5.6,4.5-10.2,10.2-10.2
		C353.1,590.9,357.6,595.4,357.6,601.1"/>
	<path class="st2" d="M338.3,595.3c0,5.6-4.5,10.2-10.2,10.2c-5.6,0-10.2-4.5-10.2-10.2c0-5.6,4.5-10.2,10.2-10.2
		C333.8,585.1,338.3,589.6,338.3,595.3"/>
	<path class="st2" d="M319,589.5c0,5.6-4.5,10.2-10.2,10.2c-5.6,0-10.2-4.5-10.2-10.2c0-5.6,4.5-10.2,10.2-10.2
		C314.4,579.3,319,583.8,319,589.5"/>
	<path class="st2" d="M299.6,583.7c0,5.6-4.5,10.2-10.2,10.2c-5.6,0-10.2-4.5-10.2-10.2c0-5.6,4.5-10.2,10.2-10.2
		C295.1,573.5,299.6,578,299.6,583.7"/>
	<path class="st2" d="M280.3,577.4c0,5.6-4.5,10.2-10.2,10.2c-5.6,0-10.2-4.5-10.2-10.2c0-5.6,4.5-10.2,10.2-10.2
		C275.7,567.2,280.3,571.8,280.3,577.4"/>
	<path class="st2" d="M415.6,606.5c0,5.6-4.5,10.2-10.2,10.2c-5.6,0-10.2-4.5-10.2-10.2c0-5.6,4.5-10.2,10.2-10.2
		C411.1,596.3,415.6,600.8,415.6,606.5"/>
	<path class="st2" d="M557.7,563c0,5.6-4.5,10.2-10.2,10.2c-5.6,0-10.2-4.5-10.2-10.2c0-5.6,4.5-10.2,10.2-10.2
		C553.2,552.9,557.7,557.4,557.7,563"/>
	<path class="st2" d="M537.4,569.2c0,5.6-4.5,10.2-10.2,10.2c-5.6,0-10.2-4.5-10.2-10.2c0-5.6,4.5-10.2,10.2-10.2
		C532.9,559.1,537.4,563.6,537.4,569.2"/>
	<path class="st2" d="M517.1,575.4c0,5.6-4.5,10.2-10.2,10.2c-5.6,0-10.2-4.5-10.2-10.2c0-5.6,4.5-10.2,10.2-10.2
		C512.6,565.3,517.1,569.8,517.1,575.4"/>
	<path class="st2" d="M496.8,581.6c0,5.6-4.5,10.2-10.2,10.2c-5.6,0-10.2-4.5-10.2-10.2c0-5.6,4.5-10.2,10.2-10.2
		C492.3,571.5,496.8,576,496.8,581.6"/>
	<path class="st2" d="M476.5,587.8c0,5.6-4.5,10.2-10.2,10.2c-5.6,0-10.2-4.5-10.2-10.2c0-5.6,4.5-10.2,10.2-10.2
		C472,577.7,476.5,582.2,476.5,587.8"/>
	<path class="st2" d="M456.2,594.1c0,5.6-4.5,10.2-10.2,10.2c-5.6,0-10.2-4.5-10.2-10.2c0-5.6,4.5-10.2,10.2-10.2
		C451.7,583.9,456.2,588.4,456.2,594.1"/>
	<path class="st2" d="M435.9,600.3c0,5.6-4.5,10.2-10.2,10.2c-5.6,0-10.2-4.5-10.2-10.2c0-5.6,4.5-10.2,10.2-10.2
		C431.4,590.1,435.9,594.6,435.9,600.3"/>
	<path class="st2" d="M578.1,556.8c0,5.6-4.5,10.2-10.2,10.2c-5.6,0-10.2-4.5-10.2-10.2c0-5.6,4.5-10.2,10.2-10.2
		C573.5,546.7,578.1,551.2,578.1,556.8"/>
	<path class="st2" d="M720.2,557.6c0,5.6-4.5,10.2-10.2,10.2c-5.6,0-10.2-4.5-10.2-10.2c0-5.6,4.5-10.2,10.2-10.2
		C715.6,547.4,720.2,551.9,720.2,557.6"/>
	<path class="st2" d="M699.9,552.7c0,5.6-4.5,10.2-10.2,10.2c-5.6,0-10.2-4.5-10.2-10.2c0-5.6,4.5-10.2,10.2-10.2
		C695.3,542.6,699.9,547.1,699.9,552.7"/>
	<path class="st2" d="M760.8,567.2c0,5.6-4.5,10.2-10.2,10.2c-5.6,0-10.2-4.5-10.2-10.2c0-5.6,4.5-10.2,10.2-10.2
		C756.2,557.1,760.8,561.6,760.8,567.2"/>
	<path class="st2" d="M740.5,562.4c0,5.6-4.5,10.2-10.2,10.2c-5.6,0-10.2-4.5-10.2-10.2c0-5.6,4.5-10.2,10.2-10.2
		C735.9,552.2,740.5,556.8,740.5,562.4"/>
	<path class="st2" d="M679.6,547.9c0,5.6-4.5,10.2-10.2,10.2c-5.6,0-10.2-4.5-10.2-10.2c0-5.6,4.5-10.2,10.2-10.2
		C675,537.7,679.6,542.3,679.6,547.9"/>
	<path class="st2" d="M659.3,543.1c0,5.6-4.5,10.2-10.2,10.2c-5.6,0-10.2-4.5-10.2-10.2c0-5.6,4.5-10.2,10.2-10.2
		C654.7,532.9,659.3,537.4,659.3,543.1"/>
	<path class="st2" d="M639,538.2c0,5.6-4.5,10.2-10.2,10.2c-5.6,0-10.2-4.5-10.2-10.2c0-5.6,4.5-10.2,10.2-10.2
		C634.4,528.1,639,532.6,639,538.2"/>
	<path class="st2" d="M618.7,544.4c0,5.6-4.5,10.2-10.2,10.2c-5.6,0-10.2-4.5-10.2-10.2c0-5.6,4.5-10.2,10.2-10.2
		C614.1,534.3,618.7,538.8,618.7,544.4"/>
	<path class="st2" d="M598.4,550.6c0,5.6-4.5,10.2-10.2,10.2c-5.6,0-10.2-4.5-10.2-10.2c0-5.6,4.5-10.2,10.2-10.2
		C593.8,540.5,598.4,545,598.4,550.6"/>
	<path class="st2" d="M781.1,572.1c0,5.6-4.5,10.2-10.2,10.2c-5.6,0-10.2-4.5-10.2-10.2c0-5.6,4.5-10.2,10.2-10.2
		C776.5,561.9,781.1,566.4,781.1,572.1"/>
</g>
<g>
	<path class="st2" d="M284.7,668.3c2.2,0,4-1.8,4-4s-1.8-4-4-4c-2.2,0-4,1.8-4,4S282.5,668.3,284.7,668.3"/>
	<path class="st2" d="M294.4,668.3c2.2,0,4-1.8,4-4s-1.8-4-4-4c-2.2,0-4,1.8-4,4S292.2,668.3,294.4,668.3"/>
	<path class="st2" d="M304.2,668.3c2.2,0,4-1.8,4-4s-1.8-4-4-4c-2.2,0-4,1.8-4,4S302,668.3,304.2,668.3"/>
	<path class="st2" d="M313.9,668.3c2.2,0,4-1.8,4-4s-1.8-4-4-4c-2.2,0-4,1.8-4,4S311.7,668.3,313.9,668.3"/>
	<path class="st2" d="M323.7,668.3c2.2,0,4-1.8,4-4s-1.8-4-4-4c-2.2,0-4,1.8-4,4S321.5,668.3,323.7,668.3"/>
	<path class="st2" d="M333.4,668.3c2.2,0,4-1.8,4-4s-1.8-4-4-4c-2.2,0-4,1.8-4,4S331.2,668.3,333.4,668.3"/>
	<path class="st2" d="M343.2,668.3c2.2,0,4-1.8,4-4s-1.8-4-4-4c-2.2,0-4,1.8-4,4S341,668.3,343.2,668.3"/>
	<path class="st2" d="M352.9,668.3c2.2,0,4-1.8,4-4s-1.8-4-4-4c-2.2,0-4,1.8-4,4S350.7,668.3,352.9,668.3"/>
	<path class="st2" d="M362.7,668.3c2.2,0,4-1.8,4-4s-1.8-4-4-4c-2.2,0-4,1.8-4,4S360.5,668.3,362.7,668.3"/>
	<path class="st2" d="M372.4,668.3c2.2,0,4-1.8,4-4s-1.8-4-4-4c-2.2,0-4,1.8-4,4S370.2,668.3,372.4,668.3"/>
	<path class="st2" d="M382.2,668.3c2.2,0,4-1.8,4-4s-1.8-4-4-4c-2.2,0-4,1.8-4,4S380,668.3,382.2,668.3"/>
	<path class="st2" d="M391.9,668.3c2.2,0,4-1.8,4-4s-1.8-4-4-4c-2.2,0-4,1.8-4,4S389.7,668.3,391.9,668.3"/>
	<path class="st2" d="M284.7,677.5c2.2,0,4-1.8,4-4c0-2.2-1.8-4-4-4c-2.2,0-4,1.8-4,4C280.7,675.7,282.5,677.5,284.7,677.5"/>
	<path class="st2" d="M294.4,677.5c2.2,0,4-1.8,4-4c0-2.2-1.8-4-4-4c-2.2,0-4,1.8-4,4C290.4,675.7,292.2,677.5,294.4,677.5"/>
	<path class="st2" d="M304.2,677.5c2.2,0,4-1.8,4-4c0-2.2-1.8-4-4-4c-2.2,0-4,1.8-4,4C300.2,675.7,302,677.5,304.2,677.5"/>
	<path class="st2" d="M313.9,677.5c2.2,0,4-1.8,4-4c0-2.2-1.8-4-4-4c-2.2,0-4,1.8-4,4C309.9,675.7,311.7,677.5,313.9,677.5"/>
	<path class="st2" d="M323.7,677.5c2.2,0,4-1.8,4-4c0-2.2-1.8-4-4-4c-2.2,0-4,1.8-4,4C319.7,675.7,321.5,677.5,323.7,677.5"/>
	<path class="st2" d="M333.4,677.5c2.2,0,4-1.8,4-4c0-2.2-1.8-4-4-4c-2.2,0-4,1.8-4,4C329.4,675.7,331.2,677.5,333.4,677.5"/>
	<path class="st2" d="M343.2,677.5c2.2,0,4-1.8,4-4c0-2.2-1.8-4-4-4c-2.2,0-4,1.8-4,4C339.2,675.7,341,677.5,343.2,677.5"/>
	<path class="st2" d="M352.9,677.5c2.2,0,4-1.8,4-4c0-2.2-1.8-4-4-4c-2.2,0-4,1.8-4,4C348.9,675.7,350.7,677.5,352.9,677.5"/>
	<path class="st2" d="M362.7,677.5c2.2,0,4-1.8,4-4c0-2.2-1.8-4-4-4c-2.2,0-4,1.8-4,4C358.7,675.7,360.5,677.5,362.7,677.5"/>
	<path class="st2" d="M372.4,677.5c2.2,0,4-1.8,4-4c0-2.2-1.8-4-4-4c-2.2,0-4,1.8-4,4C368.4,675.7,370.2,677.5,372.4,677.5"/>
	<path class="st2" d="M382.2,677.5c2.2,0,4-1.8,4-4c0-2.2-1.8-4-4-4c-2.2,0-4,1.8-4,4C378.2,675.7,380,677.5,382.2,677.5"/>
	<path class="st2" d="M391.9,677.5c2.2,0,4-1.8,4-4c0-2.2-1.8-4-4-4c-2.2,0-4,1.8-4,4C387.9,675.7,389.7,677.5,391.9,677.5"/>
	<path class="st2" d="M284.7,686.8c2.2,0,4-1.8,4-4c0-2.2-1.8-4-4-4c-2.2,0-4,1.8-4,4C280.7,685,282.5,686.8,284.7,686.8"/>
	<path class="st2" d="M294.4,686.8c2.2,0,4-1.8,4-4c0-2.2-1.8-4-4-4c-2.2,0-4,1.8-4,4C290.4,685,292.2,686.8,294.4,686.8"/>
	<path class="st2" d="M304.2,686.8c2.2,0,4-1.8,4-4c0-2.2-1.8-4-4-4c-2.2,0-4,1.8-4,4C300.2,685,302,686.8,304.2,686.8"/>
	<path class="st2" d="M313.9,686.8c2.2,0,4-1.8,4-4c0-2.2-1.8-4-4-4c-2.2,0-4,1.8-4,4C309.9,685,311.7,686.8,313.9,686.8"/>
	<path class="st2" d="M323.7,686.8c2.2,0,4-1.8,4-4c0-2.2-1.8-4-4-4c-2.2,0-4,1.8-4,4C319.7,685,321.5,686.8,323.7,686.8"/>
	<path class="st2" d="M333.4,686.8c2.2,0,4-1.8,4-4c0-2.2-1.8-4-4-4c-2.2,0-4,1.8-4,4C329.4,685,331.2,686.8,333.4,686.8"/>
	<path class="st2" d="M343.2,686.8c2.2,0,4-1.8,4-4c0-2.2-1.8-4-4-4c-2.2,0-4,1.8-4,4C339.2,685,341,686.8,343.2,686.8"/>
	<path class="st2" d="M352.9,686.8c2.2,0,4-1.8,4-4c0-2.2-1.8-4-4-4c-2.2,0-4,1.8-4,4C348.9,685,350.7,686.8,352.9,686.8"/>
	<path class="st2" d="M362.7,686.8c2.2,0,4-1.8,4-4c0-2.2-1.8-4-4-4c-2.2,0-4,1.8-4,4C358.7,685,360.5,686.8,362.7,686.8"/>
	<path class="st2" d="M372.4,686.8c2.2,0,4-1.8,4-4c0-2.2-1.8-4-4-4c-2.2,0-4,1.8-4,4C368.4,685,370.2,686.8,372.4,686.8"/>
	<path class="st2" d="M382.2,686.8c2.2,0,4-1.8,4-4c0-2.2-1.8-4-4-4c-2.2,0-4,1.8-4,4C378.2,685,380,686.8,382.2,686.8"/>
	<path class="st2" d="M391.9,686.8c2.2,0,4-1.8,4-4c0-2.2-1.8-4-4-4c-2.2,0-4,1.8-4,4C387.9,685,389.7,686.8,391.9,686.8"/>
	<path class="st2" d="M284.7,696c2.2,0,4-1.8,4-4c0-2.2-1.8-4-4-4c-2.2,0-4,1.8-4,4C280.7,694.3,282.5,696,284.7,696"/>
	<path class="st2" d="M294.4,696c2.2,0,4-1.8,4-4c0-2.2-1.8-4-4-4c-2.2,0-4,1.8-4,4C290.4,694.3,292.2,696,294.4,696"/>
	<path class="st2" d="M304.2,696c2.2,0,4-1.8,4-4c0-2.2-1.8-4-4-4c-2.2,0-4,1.8-4,4C300.2,694.3,302,696,304.2,696"/>
	<path class="st2" d="M313.9,696c2.2,0,4-1.8,4-4c0-2.2-1.8-4-4-4c-2.2,0-4,1.8-4,4C309.9,694.3,311.7,696,313.9,696"/>
	<path class="st2" d="M323.7,696c2.2,0,4-1.8,4-4c0-2.2-1.8-4-4-4c-2.2,0-4,1.8-4,4C319.7,694.3,321.5,696,323.7,696"/>
	<path class="st2" d="M333.4,696c2.2,0,4-1.8,4-4c0-2.2-1.8-4-4-4c-2.2,0-4,1.8-4,4C329.4,694.3,331.2,696,333.4,696"/>
	<path class="st2" d="M343.2,696c2.2,0,4-1.8,4-4c0-2.2-1.8-4-4-4c-2.2,0-4,1.8-4,4C339.2,694.3,341,696,343.2,696"/>
	<path class="st2" d="M352.9,696c2.2,0,4-1.8,4-4c0-2.2-1.8-4-4-4c-2.2,0-4,1.8-4,4C348.9,694.3,350.7,696,352.9,696"/>
	<path class="st2" d="M362.7,696c2.2,0,4-1.8,4-4c0-2.2-1.8-4-4-4c-2.2,0-4,1.8-4,4C358.7,694.3,360.5,696,362.7,696"/>
	<path class="st2" d="M372.4,696c2.2,0,4-1.8,4-4c0-2.2-1.8-4-4-4c-2.2,0-4,1.8-4,4C368.4,694.3,370.2,696,372.4,696"/>
	<path class="st2" d="M382.2,696c2.2,0,4-1.8,4-4c0-2.2-1.8-4-4-4c-2.2,0-4,1.8-4,4C378.2,694.3,380,696,382.2,696"/>
	<path class="st2" d="M391.9,696c2.2,0,4-1.8,4-4c0-2.2-1.8-4-4-4c-2.2,0-4,1.8-4,4C387.9,694.3,389.7,696,391.9,696"/>
	<path class="st2" d="M284.7,705.3c2.2,0,4-1.8,4-4c0-2.2-1.8-4-4-4c-2.2,0-4,1.8-4,4C280.7,703.5,282.5,705.3,284.7,705.3"/>
	<path class="st2" d="M294.4,705.3c2.2,0,4-1.8,4-4c0-2.2-1.8-4-4-4c-2.2,0-4,1.8-4,4C290.4,703.5,292.2,705.3,294.4,705.3"/>
	<path class="st2" d="M304.2,705.3c2.2,0,4-1.8,4-4c0-2.2-1.8-4-4-4c-2.2,0-4,1.8-4,4C300.2,703.5,302,705.3,304.2,705.3"/>
	<path class="st2" d="M313.9,705.3c2.2,0,4-1.8,4-4c0-2.2-1.8-4-4-4c-2.2,0-4,1.8-4,4C309.9,703.5,311.7,705.3,313.9,705.3"/>
	<path class="st2" d="M323.7,705.3c2.2,0,4-1.8,4-4c0-2.2-1.8-4-4-4c-2.2,0-4,1.8-4,4C319.7,703.5,321.5,705.3,323.7,705.3"/>
	<path class="st2" d="M333.4,705.3c2.2,0,4-1.8,4-4c0-2.2-1.8-4-4-4c-2.2,0-4,1.8-4,4C329.4,703.5,331.2,705.3,333.4,705.3"/>
	<path class="st2" d="M343.2,705.3c2.2,0,4-1.8,4-4c0-2.2-1.8-4-4-4c-2.2,0-4,1.8-4,4C339.2,703.5,341,705.3,343.2,705.3"/>
	<path class="st2" d="M352.9,705.3c2.2,0,4-1.8,4-4c0-2.2-1.8-4-4-4c-2.2,0-4,1.8-4,4C348.9,703.5,350.7,705.3,352.9,705.3"/>
	<path class="st2" d="M362.7,705.3c2.2,0,4-1.8,4-4c0-2.2-1.8-4-4-4c-2.2,0-4,1.8-4,4C358.7,703.5,360.5,705.3,362.7,705.3"/>
	<path class="st2" d="M372.4,705.3c2.2,0,4-1.8,4-4c0-2.2-1.8-4-4-4c-2.2,0-4,1.8-4,4C368.4,703.5,370.2,705.3,372.4,705.3"/>
	<path class="st2" d="M382.2,705.3c2.2,0,4-1.8,4-4c0-2.2-1.8-4-4-4c-2.2,0-4,1.8-4,4C378.2,703.5,380,705.3,382.2,705.3"/>
	<path class="st2" d="M391.9,705.3c2.2,0,4-1.8,4-4c0-2.2-1.8-4-4-4c-2.2,0-4,1.8-4,4C387.9,703.5,389.7,705.3,391.9,705.3"/>
	<path class="st2" d="M284.7,714.6c2.2,0,4-1.8,4-4c0-2.2-1.8-4-4-4c-2.2,0-4,1.8-4,4C280.7,712.8,282.5,714.6,284.7,714.6"/>
	<path class="st2" d="M294.4,714.6c2.2,0,4-1.8,4-4c0-2.2-1.8-4-4-4c-2.2,0-4,1.8-4,4C290.4,712.8,292.2,714.6,294.4,714.6"/>
	<path class="st2" d="M304.2,714.6c2.2,0,4-1.8,4-4c0-2.2-1.8-4-4-4c-2.2,0-4,1.8-4,4C300.2,712.8,302,714.6,304.2,714.6"/>
	<path class="st2" d="M313.9,714.6c2.2,0,4-1.8,4-4c0-2.2-1.8-4-4-4c-2.2,0-4,1.8-4,4C309.9,712.8,311.7,714.6,313.9,714.6"/>
	<path class="st2" d="M323.7,714.6c2.2,0,4-1.8,4-4c0-2.2-1.8-4-4-4c-2.2,0-4,1.8-4,4C319.7,712.8,321.5,714.6,323.7,714.6"/>
	<path class="st2" d="M333.4,714.6c2.2,0,4-1.8,4-4c0-2.2-1.8-4-4-4c-2.2,0-4,1.8-4,4C329.4,712.8,331.2,714.6,333.4,714.6"/>
	<path class="st2" d="M343.2,714.6c2.2,0,4-1.8,4-4c0-2.2-1.8-4-4-4c-2.2,0-4,1.8-4,4C339.2,712.8,341,714.6,343.2,714.6"/>
	<path class="st2" d="M352.9,714.6c2.2,0,4-1.8,4-4c0-2.2-1.8-4-4-4c-2.2,0-4,1.8-4,4C348.9,712.8,350.7,714.6,352.9,714.6"/>
	<path class="st2" d="M362.7,714.6c2.2,0,4-1.8,4-4c0-2.2-1.8-4-4-4c-2.2,0-4,1.8-4,4C358.7,712.8,360.5,714.6,362.7,714.6"/>
	<path class="st2" d="M372.4,714.6c2.2,0,4-1.8,4-4c0-2.2-1.8-4-4-4c-2.2,0-4,1.8-4,4C368.4,712.8,370.2,714.6,372.4,714.6"/>
	<path class="st2" d="M382.2,714.6c2.2,0,4-1.8,4-4c0-2.2-1.8-4-4-4c-2.2,0-4,1.8-4,4C378.2,712.8,380,714.6,382.2,714.6"/>
	<path class="st2" d="M391.9,714.6c2.2,0,4-1.8,4-4c0-2.2-1.8-4-4-4c-2.2,0-4,1.8-4,4C387.9,712.8,389.7,714.6,391.9,714.6"/>
	<path class="st2" d="M284.7,723.8c2.2,0,4-1.8,4-4c0-2.2-1.8-4-4-4c-2.2,0-4,1.8-4,4C280.7,722.1,282.5,723.8,284.7,723.8"/>
	<path class="st2" d="M294.4,723.8c2.2,0,4-1.8,4-4c0-2.2-1.8-4-4-4c-2.2,0-4,1.8-4,4C290.4,722.1,292.2,723.8,294.4,723.8"/>
	<path class="st2" d="M304.2,723.8c2.2,0,4-1.8,4-4c0-2.2-1.8-4-4-4c-2.2,0-4,1.8-4,4C300.2,722.1,302,723.8,304.2,723.8"/>
	<path class="st2" d="M313.9,723.8c2.2,0,4-1.8,4-4c0-2.2-1.8-4-4-4c-2.2,0-4,1.8-4,4C309.9,722.1,311.7,723.8,313.9,723.8"/>
	<path class="st2" d="M323.7,723.8c2.2,0,4-1.8,4-4c0-2.2-1.8-4-4-4c-2.2,0-4,1.8-4,4C319.7,722.1,321.5,723.8,323.7,723.8"/>
	<path class="st2" d="M333.4,723.8c2.2,0,4-1.8,4-4c0-2.2-1.8-4-4-4c-2.2,0-4,1.8-4,4C329.4,722.1,331.2,723.8,333.4,723.8"/>
	<path class="st2" d="M343.2,723.8c2.2,0,4-1.8,4-4c0-2.2-1.8-4-4-4c-2.2,0-4,1.8-4,4C339.2,722.1,341,723.8,343.2,723.8"/>
	<path class="st2" d="M352.9,723.8c2.2,0,4-1.8,4-4c0-2.2-1.8-4-4-4c-2.2,0-4,1.8-4,4C348.9,722.1,350.7,723.8,352.9,723.8"/>
	<path class="st2" d="M362.7,723.8c2.2,0,4-1.8,4-4c0-2.2-1.8-4-4-4c-2.2,0-4,1.8-4,4C358.7,722.1,360.5,723.8,362.7,723.8"/>
	<path class="st2" d="M372.4,723.8c2.2,0,4-1.8,4-4c0-2.2-1.8-4-4-4c-2.2,0-4,1.8-4,4C368.4,722.1,370.2,723.8,372.4,723.8"/>
	<path class="st2" d="M382.2,723.8c2.2,0,4-1.8,4-4c0-2.2-1.8-4-4-4c-2.2,0-4,1.8-4,4C378.2,722.1,380,723.8,382.2,723.8"/>
	<path class="st2" d="M391.9,723.8c2.2,0,4-1.8,4-4c0-2.2-1.8-4-4-4c-2.2,0-4,1.8-4,4C387.9,722.1,389.7,723.8,391.9,723.8"/>
	<path class="st2" d="M284.7,733.1c2.2,0,4-1.8,4-4c0-2.2-1.8-4-4-4c-2.2,0-4,1.8-4,4C280.7,731.3,282.5,733.1,284.7,733.1"/>
	<path class="st2" d="M294.4,733.1c2.2,0,4-1.8,4-4c0-2.2-1.8-4-4-4c-2.2,0-4,1.8-4,4C290.4,731.3,292.2,733.1,294.4,733.1"/>
	<path class="st2" d="M304.2,733.1c2.2,0,4-1.8,4-4c0-2.2-1.8-4-4-4c-2.2,0-4,1.8-4,4C300.2,731.3,302,733.1,304.2,733.1"/>
	<path class="st2" d="M313.9,733.1c2.2,0,4-1.8,4-4c0-2.2-1.8-4-4-4c-2.2,0-4,1.8-4,4C309.9,731.3,311.7,733.1,313.9,733.1"/>
	<path class="st2" d="M323.7,733.1c2.2,0,4-1.8,4-4c0-2.2-1.8-4-4-4c-2.2,0-4,1.8-4,4C319.7,731.3,321.5,733.1,323.7,733.1"/>
	<path class="st2" d="M333.4,733.1c2.2,0,4-1.8,4-4c0-2.2-1.8-4-4-4c-2.2,0-4,1.8-4,4C329.4,731.3,331.2,733.1,333.4,733.1"/>
	<path class="st2" d="M343.2,733.1c2.2,0,4-1.8,4-4c0-2.2-1.8-4-4-4c-2.2,0-4,1.8-4,4C339.2,731.3,341,733.1,343.2,733.1"/>
	<path class="st2" d="M352.9,733.1c2.2,0,4-1.8,4-4c0-2.2-1.8-4-4-4c-2.2,0-4,1.8-4,4C348.9,731.3,350.7,733.1,352.9,733.1"/>
	<path class="st2" d="M362.7,733.1c2.2,0,4-1.8,4-4c0-2.2-1.8-4-4-4c-2.2,0-4,1.8-4,4C358.7,731.3,360.5,733.1,362.7,733.1"/>
	<path class="st2" d="M372.4,733.1c2.2,0,4-1.8,4-4c0-2.2-1.8-4-4-4c-2.2,0-4,1.8-4,4C368.4,731.3,370.2,733.1,372.4,733.1"/>
	<path class="st2" d="M382.2,733.1c2.2,0,4-1.8,4-4c0-2.2-1.8-4-4-4c-2.2,0-4,1.8-4,4C378.2,731.3,380,733.1,382.2,733.1"/>
	<path class="st2" d="M391.9,733.1c2.2,0,4-1.8,4-4c0-2.2-1.8-4-4-4c-2.2,0-4,1.8-4,4C387.9,731.3,389.7,733.1,391.9,733.1"/>
	<path class="st2" d="M284.7,742.4c2.2,0,4-1.8,4-4c0-2.2-1.8-4-4-4c-2.2,0-4,1.8-4,4C280.7,740.6,282.5,742.4,284.7,742.4"/>
	<path class="st2" d="M294.4,742.4c2.2,0,4-1.8,4-4c0-2.2-1.8-4-4-4c-2.2,0-4,1.8-4,4C290.4,740.6,292.2,742.4,294.4,742.4"/>
	<path class="st2" d="M304.2,742.4c2.2,0,4-1.8,4-4c0-2.2-1.8-4-4-4c-2.2,0-4,1.8-4,4C300.2,740.6,302,742.4,304.2,742.4"/>
	<path class="st2" d="M313.9,742.4c2.2,0,4-1.8,4-4c0-2.2-1.8-4-4-4c-2.2,0-4,1.8-4,4C309.9,740.6,311.7,742.4,313.9,742.4"/>
	<path class="st2" d="M323.7,742.4c2.2,0,4-1.8,4-4c0-2.2-1.8-4-4-4c-2.2,0-4,1.8-4,4C319.7,740.6,321.5,742.4,323.7,742.4"/>
	<path class="st2" d="M333.4,742.4c2.2,0,4-1.8,4-4c0-2.2-1.8-4-4-4c-2.2,0-4,1.8-4,4C329.4,740.6,331.2,742.4,333.4,742.4"/>
	<path class="st2" d="M343.2,742.4c2.2,0,4-1.8,4-4c0-2.2-1.8-4-4-4c-2.2,0-4,1.8-4,4C339.2,740.6,341,742.4,343.2,742.4"/>
	<path class="st2" d="M352.9,742.4c2.2,0,4-1.8,4-4c0-2.2-1.8-4-4-4c-2.2,0-4,1.8-4,4C348.9,740.6,350.7,742.4,352.9,742.4"/>
	<path class="st2" d="M362.7,742.4c2.2,0,4-1.8,4-4c0-2.2-1.8-4-4-4c-2.2,0-4,1.8-4,4C358.7,740.6,360.5,742.4,362.7,742.4"/>
	<path class="st2" d="M372.4,742.4c2.2,0,4-1.8,4-4c0-2.2-1.8-4-4-4c-2.2,0-4,1.8-4,4C368.4,740.6,370.2,742.4,372.4,742.4"/>
	<path class="st2" d="M382.2,742.4c2.2,0,4-1.8,4-4c0-2.2-1.8-4-4-4c-2.2,0-4,1.8-4,4C378.2,740.6,380,742.4,382.2,742.4"/>
	<path class="st2" d="M391.9,742.4c2.2,0,4-1.8,4-4c0-2.2-1.8-4-4-4c-2.2,0-4,1.8-4,4C387.9,740.6,389.7,742.4,391.9,742.4"/>
</g>
<path class="st2" d="M161.9,667.8c-6.8,5.4-7.4,13.7-10.7,18.9c-3.2,5.2-10.1,11.1-11.8,15.2c-1.7,4.1,0.2,13-1.2,16
	c-1.4,3-6.5,11.1-6,17.5c0.5,6.3,3.7,13,4.6,17.8c0.9,4.8,0.4,10,3,13c2.6,3,5.2,5.9,9.3,7.6c4.1,1.7,8,6.9,12.3,8.4
	c4.4,1.5,9.4,1.1,17-1.9c7.6-3,16.3-7.8,19.7-7.8s14.6,0.4,21.9-4.3c7.3-4.6,7.8-19.9,5.6-26.2c-2.2-6.3-8.2-22.3-10.8-26.7
	c-2.6-4.5-7.4-6.3-7.1-10.8c0.4-4.5,2.6-13.9,1.1-20.3c-1.5-6.4-6.7-15.3-12.6-15.7c-5.9-0.4-12.1,1.2-16.2-0.4
	C175.8,666.6,166.5,664.1,161.9,667.8"/>
</svg>
