<?xml version="1.0" encoding="utf-8"?>
<!-- Generator: Adobe Illustrator 23.0.4, SVG Export Plug-In . SVG Version: 6.00 Build 0)  -->
<svg version="1.1" id="Layer_1" xmlns="http://www.w3.org/2000/svg" xmlns:xlink="http://www.w3.org/1999/xlink" x="0px" y="0px"
	 viewBox="0 0 1000 1000" style="enable-background:new 0 0 1000 1000;" xml:space="preserve">
<style type="text/css">
	.st0{fill:#E60013;}
</style>
<polygon class="st0" points="368.4,11.5 335.3,18.5 323.5,27.1 314.6,151.9 320.6,158.6 351.5,172.3 385.3,172.3 416.2,158.6 
	438.8,133.4 449.3,101.3 445.8,67.6 428.9,38.4 401.5,18.5 "/>
<title>selected</title>
<polygon class="st0" points="260.9,299 321.8,406.6 200.1,406.6 "/>
<polygon class="st0" points="0.6,257.6 146.2,257.6 73.1,301.2 "/>
<g id="레이어_1">
	<path class="st0" d="M493,96.8L481.2,112l-1.2,16l-6,17.5l4.6,17.8l3,13l21.6,16l17-1.9l19.7-7.8l21.9-4.3l5.6-26.2l-10.8-26.7
		l-7.1-10.8l1.1-20.3L538,78.6l-34.3-0.7L493,96.8z"/>
</g>
<polygon class="st0" points="579.8,200.7 430.3,200.7 402.6,221.1 402.6,241.5 551.9,241.5 579.8,221.1 "/>
</svg>
