<?xml version="1.0" encoding="utf-8"?>
<!-- Generator: Adobe Illustrator 23.0.4, SVG Export Plug-In . SVG Version: 6.00 Build 0)  -->
<svg version="1.1" xmlns="http://www.w3.org/2000/svg" xmlns:xlink="http://www.w3.org/1999/xlink" x="0px" y="0px"
	 viewBox="0 0 1000 1000" style="enable-background:new 0 0 1000 1000;" xml:space="preserve">
<style type="text/css">
	.st0{fill:#E60013;}
	.st1{fill:#FFF100;}
	.st2{fill:#0D3388;}
	.st3{fill:#E50013;}
	.st4{fill:none;stroke:#000000;stroke-width:0.5;stroke-miterlimit:10;}
</style>
<g id="레이어_1">
	<g>
		<rect x="3.9" y="3.6" class="st0" width="243.8" height="12.3"/>
		<rect x="3.9" y="29" class="st0" width="243.8" height="12.3"/>
		<rect x="3.9" y="54.5" class="st0" width="243.8" height="12.3"/>
		<rect x="3.9" y="80" class="st0" width="243.8" height="12.3"/>
	</g>
	<polygon class="st0" points="176.3,800 184.1,813.4 194.9,802.3 199.3,817.1 212.4,808.9 213.1,824.3 227.8,819.4 224.7,834.6 
		240.2,833.4 233.6,847.3 248.9,849.9 239.1,861.9 253.4,868 241,877.3 253.4,886.6 239.1,892.7 248.9,904.7 233.6,907.2 
		240.2,921.2 224.7,920 227.8,935.1 213.1,930.3 212.4,945.7 199.3,937.5 194.9,952.3 184.1,941.2 176.3,954.5 168.5,941.2 
		157.8,952.3 153.4,937.5 140.3,945.7 139.6,930.3 124.9,935.1 127.9,920 112.5,921.2 119.1,907.2 103.8,904.7 113.5,892.7 
		99.3,886.6 111.7,877.3 99.3,868 113.5,861.9 103.8,849.9 119.1,847.3 112.5,833.4 127.9,834.6 124.9,819.4 139.6,824.3 
		140.3,808.9 153.4,817.1 157.8,802.3 168.5,813.4 	"/>
	<rect x="400" y="859" class="st0" width="260.4" height="122.3"/>
	<polygon class="st0" points="174,299 250.7,434.5 97.5,434.5 	"/>
	<path class="st0" d="M568.7,8c-10,7.9-10.8,20.1-15.7,27.7c-4.7,7.6-14.8,16.3-17.3,22.3c-2.5,6,0.3,19-1.8,23.4
		s-9.5,16.3-8.8,25.6c0.7,9.2,5.4,19,6.7,26.1c1.3,7,0.6,14.7,4.4,19c3.8,4.4,7.6,8.6,13.6,11.1c6,2.5,11.7,10.1,18,12.3
		c6.4,2.2,13.8,1.6,24.9-2.8c11.1-4.4,23.9-11.4,28.9-11.4c5,0,21.4,0.6,32.1-6.3c10.7-6.7,11.4-29.2,8.2-38.4
		c-3.2-9.2-12-32.7-15.8-39.1c-3.8-6.6-10.8-9.2-10.4-15.8c0.6-6.6,3.8-20.4,1.6-29.7s-9.8-22.4-18.5-23c-8.6-0.6-17.7,1.8-23.7-0.6
		C589.2,6.2,575.6,2.6,568.7,8"/>
	<polygon class="st0" points="0.7,257.6 146.2,257.6 73.1,301.2 	"/>
	<rect x="726.5" y="664" class="st0" width="31.9" height="117.2"/>
	<path class="st0" d="M700.2,278.8c0-13.4,10.7-24.2,23.9-24.2c13.2,0,23.9,10.9,23.9,24.2c0,13.4-10.7,24.2-23.9,24.2
		C710.9,302.9,700.2,292,700.2,278.8"/>
	<path class="st0" d="M700.2,352.1c0-16.7,13.4-30.2,29.9-30.2s29.9,13.5,29.9,30.2c0,16.7-13.4,30.2-29.9,30.2
		C713.6,382.5,700.2,368.9,700.2,352.1"/>
	<path class="st0" d="M700.2,648.4c0.1-30,24.2-54.4,53.9-54.3c29.7,0.1,53.7,24.5,53.7,54.6c-0.1,30-24.2,54.4-53.9,54.3
		C724.3,702.9,700.1,678.4,700.2,648.4"/>
	<path class="st0" d="M699.8,794.4c0.1-40.1,32.3-72.4,71.9-72.3c39.6,0.1,71.6,32.6,71.5,72.7s-32.3,72.4-71.9,72.3
		C731.9,867,699.7,834.5,699.8,794.4"/>
	<path class="st0" d="M700.5,536.3c0.1-21.4,17.2-38.6,38.3-38.6c21.1,0.1,38.2,17.4,38.1,38.8c-0.1,21.4-17.2,38.6-38.3,38.6
		C717.5,575,700.4,557.6,700.5,536.3"/>
	<path class="st0" d="M700.7,439.8c0.1-21.4,17.2-38.6,38.3-38.6c21.1,0.1,38.2,17.4,38.1,38.8c-0.1,21.4-17.2,38.6-38.3,38.6
		C717.8,478.6,700.7,461.2,700.7,439.8"/>
	<path class="st0" d="M700.2,217.5c0-10.1,8-18.1,17.9-18.1c9.9,0,17.9,8.2,17.9,18.1c0,10.1-8,18.1-17.9,18.1
		C708.2,235.5,700.2,227.4,700.2,217.5"/>
	<rect x="600" y="263.1" class="st1" width="99.8" height="136.7"/>
	<rect x="750.6" y="149.2" class="st1" width="101.5" height="152"/>
	<rect x="869" y="355.7" class="st1" width="128.8" height="43.6"/>
	<rect x="800" y="332.3" class="st1" width="197.8" height="67"/>
	<g>
		<g>
			<path class="st1" d="M517.7,530.5c36,0,65.1-29.1,65.1-65.1s-29.1-65.1-65.1-65.1c-36,0-65.3,29.1-65.3,65.1
				C452.5,501.4,481.7,530.5,517.7,530.5"/>
		</g>
	</g>
	<g>
		<g>
			<path class="st1" d="M366.8,530.5c36,0,65.1-29.1,65.1-65.1s-29.1-65.1-65.1-65.1s-65.1,29.1-65.1,65.1
				C301.5,501.4,330.8,530.5,366.8,530.5"/>
		</g>
	</g>
	<g>
		<g>
			<path class="st1" d="M537.4,375.9c21,0,38-17,38-38c0-21-17-38-38-38c-21,0-38,17-38,38C499.4,359,516.4,375.9,537.4,375.9"/>
		</g>
	</g>
	<g>
		<g>
			<path class="st1" d="M440.6,375.9c21,0,38-17,38-38c0-21-17-38-38-38c-21,0-38,17-38,38C402.6,359,419.6,375.9,440.6,375.9"/>
		</g>
	</g>
	<g>
		<g>
			<g>
				<path class="st1" d="M587.7,700.7c0,11.9-9.6,21.4-21.4,21.4c-11.9,0-21.4-9.6-21.4-21.4s9.6-21.4,21.4-21.4
					C578.1,679.4,587.7,689,587.7,700.7 M665.5,700.7c0-54.9-44.4-99.3-99.3-99.3c-20.5,0-39.6,6.3-55.4,17L500,774.6
					c17.6,15.8,40.8,25.4,66.2,25.4C621.1,800,665.5,755.6,665.5,700.7"/>
			</g>
		</g>
	</g>
	<g>
		<path class="st2" d="M19.2,565c0,5.6-4.5,10.2-10.2,10.2c-5.6,0-10.2-4.5-10.2-10.2c0-5.6,4.5-10.2,10.2-10.2S19.2,559.4,19.2,565
			"/>
		<path class="st2" d="M39.5,565c0,5.6-4.5,10.2-10.2,10.2c-5.6,0-10.2-4.5-10.2-10.2c0-5.6,4.5-10.2,10.2-10.2S39.5,559.4,39.5,565
			"/>
		<path class="st2" d="M58.8,565c0,5.6-4.5,10.2-10.2,10.2c-5.6,0-10.2-4.5-10.2-10.2c0-5.6,4.5-10.2,10.2-10.2S58.8,559.4,58.8,565
			"/>
		<path class="st2" d="M78.1,565c0,5.6-4.5,10.2-10.2,10.2c-5.6,0-10.2-4.5-10.2-10.2c0-5.6,4.5-10.2,10.2-10.2S78.1,559.4,78.1,565
			"/>
		<path class="st2" d="M97.4,565c0,5.6-4.5,10.2-10.2,10.2c-5.6,0-10.2-4.5-10.2-10.2c0-5.6,4.5-10.2,10.2-10.2S97.4,559.4,97.4,565
			"/>
		<path class="st2" d="M116.7,565c0,5.6-4.5,10.2-10.2,10.2c-5.6,0-10.2-4.5-10.2-10.2c0-5.6,4.5-10.2,10.2-10.2
			S116.7,559.4,116.7,565"/>
		<path class="st2" d="M136,565c0,5.6-4.5,10.2-10.2,10.2c-5.6,0-10.2-4.5-10.2-10.2c0-5.6,4.5-10.2,10.2-10.2
			C131.5,554.8,136,559.4,136,565"/>
		<path class="st2" d="M155.3,565c0,5.6-4.5,10.2-10.2,10.2c-5.6,0-10.2-4.5-10.2-10.2c0-5.6,4.5-10.2,10.2-10.2
			C150.8,554.8,155.3,559.4,155.3,565"/>
		<path class="st2" d="M174.6,571.2c0,5.6-4.5,10.2-10.2,10.2c-5.6,0-10.2-4.5-10.2-10.2c0-5.6,4.5-10.2,10.2-10.2
			C170.1,561,174.6,565.6,174.6,571.2"/>
		<path class="st2" d="M311.2,612.7c0,5.6-4.5,10.2-10.2,10.2c-5.6,0-10.2-4.5-10.2-10.2c0-5.6,4.5-10.2,10.2-10.2
			S311.2,607.1,311.2,612.7"/>
		<path class="st2" d="M291.9,606.9c0,5.6-4.5,10.2-10.2,10.2c-5.6,0-10.2-4.5-10.2-10.2c0-5.6,4.5-10.2,10.2-10.2
			C287.3,596.7,291.9,601.2,291.9,606.9"/>
		<path class="st2" d="M272.5,601.1c0,5.6-4.5,10.2-10.2,10.2c-5.6,0-10.2-4.5-10.2-10.2c0-5.6,4.5-10.2,10.2-10.2
			C268,590.9,272.5,595.4,272.5,601.1"/>
		<path class="st2" d="M253.2,595.3c0,5.6-4.5,10.2-10.2,10.2c-5.6,0-10.2-4.5-10.2-10.2c0-5.6,4.5-10.2,10.2-10.2
			S253.2,589.6,253.2,595.3"/>
		<path class="st2" d="M233.9,589.5c0,5.6-4.5,10.2-10.2,10.2c-5.6,0-10.2-4.5-10.2-10.2c0-5.6,4.5-10.2,10.2-10.2
			C229.3,579.3,233.9,583.8,233.9,589.5"/>
		<path class="st2" d="M214.5,583.7c0,5.6-4.5,10.2-10.2,10.2c-5.6,0-10.2-4.5-10.2-10.2c0-5.6,4.5-10.2,10.2-10.2
			S214.5,578,214.5,583.7"/>
		<path class="st2" d="M195.2,577.4c0,5.6-4.5,10.2-10.2,10.2c-5.6,0-10.2-4.5-10.2-10.2c0-5.6,4.5-10.2,10.2-10.2
			C190.6,567.2,195.2,571.8,195.2,577.4"/>
		<path class="st2" d="M330.5,606.5c0,5.6-4.5,10.2-10.2,10.2c-5.6,0-10.2-4.5-10.2-10.2c0-5.6,4.5-10.2,10.2-10.2
			S330.5,600.8,330.5,606.5"/>
		<path class="st2" d="M472.6,563c0,5.6-4.5,10.2-10.2,10.2c-5.6,0-10.2-4.5-10.2-10.2c0-5.6,4.5-10.2,10.2-10.2
			C468.1,552.9,472.6,557.4,472.6,563"/>
		<path class="st2" d="M452.3,569.2c0,5.6-4.5,10.2-10.2,10.2c-5.6,0-10.2-4.5-10.2-10.2c0-5.6,4.5-10.2,10.2-10.2
			C447.8,559.1,452.3,563.6,452.3,569.2"/>
		<path class="st2" d="M432,575.4c0,5.6-4.5,10.2-10.2,10.2c-5.6,0-10.2-4.5-10.2-10.2c0-5.6,4.5-10.2,10.2-10.2
			C427.5,565.3,432,569.8,432,575.4"/>
		<path class="st2" d="M411.7,581.6c0,5.6-4.5,10.2-10.2,10.2c-5.6,0-10.2-4.5-10.2-10.2c0-5.6,4.5-10.2,10.2-10.2
			C407.2,571.5,411.7,576,411.7,581.6"/>
		<path class="st2" d="M391.4,587.8c0,5.6-4.5,10.2-10.2,10.2c-5.6,0-10.2-4.5-10.2-10.2c0-5.6,4.5-10.2,10.2-10.2
			C386.9,577.7,391.4,582.2,391.4,587.8"/>
		<path class="st2" d="M371.1,594.1c0,5.6-4.5,10.2-10.2,10.2c-5.6,0-10.2-4.5-10.2-10.2c0-5.6,4.5-10.2,10.2-10.2
			C366.6,583.9,371.1,588.4,371.1,594.1"/>
		<path class="st2" d="M350.8,600.3c0,5.6-4.5,10.2-10.2,10.2c-5.6,0-10.2-4.5-10.2-10.2c0-5.6,4.5-10.2,10.2-10.2
			S350.8,594.6,350.8,600.3"/>
		<path class="st2" d="M493,556.8c0,5.6-4.5,10.2-10.2,10.2c-5.6,0-10.2-4.5-10.2-10.2c0-5.6,4.5-10.2,10.2-10.2
			C488.4,546.7,493,551.2,493,556.8"/>
		<path class="st2" d="M635.1,557.6c0,5.6-4.5,10.2-10.2,10.2c-5.6,0-10.2-4.5-10.2-10.2c0-5.6,4.5-10.2,10.2-10.2
			C630.5,547.4,635.1,551.9,635.1,557.6"/>
		<path class="st2" d="M614.8,552.7c0,5.6-4.5,10.2-10.2,10.2c-5.6,0-10.2-4.5-10.2-10.2c0-5.6,4.5-10.2,10.2-10.2
			C610.2,542.6,614.8,547.1,614.8,552.7"/>
		<path class="st2" d="M675.7,567.2c0,5.6-4.5,10.2-10.2,10.2c-5.6,0-10.2-4.5-10.2-10.2c0-5.6,4.5-10.2,10.2-10.2
			C671.1,557.1,675.7,561.6,675.7,567.2"/>
		<path class="st2" d="M655.4,562.4c0,5.6-4.5,10.2-10.2,10.2c-5.6,0-10.2-4.5-10.2-10.2c0-5.6,4.5-10.2,10.2-10.2
			C650.8,552.2,655.4,556.8,655.4,562.4"/>
		<path class="st2" d="M594.5,547.9c0,5.6-4.5,10.2-10.2,10.2c-5.6,0-10.2-4.5-10.2-10.2c0-5.6,4.5-10.2,10.2-10.2
			C589.9,537.7,594.5,542.3,594.5,547.9"/>
		<path class="st2" d="M574.2,543.1c0,5.6-4.5,10.2-10.2,10.2c-5.6,0-10.2-4.5-10.2-10.2c0-5.6,4.5-10.2,10.2-10.2
			C569.6,532.9,574.2,537.4,574.2,543.1"/>
		<path class="st2" d="M553.9,538.2c0,5.6-4.5,10.2-10.2,10.2c-5.6,0-10.2-4.5-10.2-10.2c0-5.6,4.5-10.2,10.2-10.2
			C549.3,528.1,553.9,532.6,553.9,538.2"/>
		<path class="st2" d="M533.6,544.4c0,5.6-4.5,10.2-10.2,10.2c-5.6,0-10.2-4.5-10.2-10.2c0-5.6,4.5-10.2,10.2-10.2
			C529,534.3,533.6,538.8,533.6,544.4"/>
		<path class="st2" d="M513.3,550.6c0,5.6-4.5,10.2-10.2,10.2c-5.6,0-10.2-4.5-10.2-10.2c0-5.6,4.5-10.2,10.2-10.2
			C508.7,540.5,513.3,545,513.3,550.6"/>
		<path class="st2" d="M696,572.1c0,5.6-4.5,10.2-10.2,10.2c-5.6,0-10.2-4.5-10.2-10.2c0-5.6,4.5-10.2,10.2-10.2
			C691.4,561.9,696,566.4,696,572.1"/>
	</g>
	<g>
		<path class="st2" d="M305.1,725.5c2.2,0,4-1.8,4-4s-1.8-4-4-4s-4,1.8-4,4S302.9,725.5,305.1,725.5"/>
		<path class="st2" d="M314.8,725.5c2.2,0,4-1.8,4-4s-1.8-4-4-4s-4,1.8-4,4S312.6,725.5,314.8,725.5"/>
		<path class="st2" d="M324.6,725.5c2.2,0,4-1.8,4-4s-1.8-4-4-4s-4,1.8-4,4S322.4,725.5,324.6,725.5"/>
		<path class="st2" d="M334.3,725.5c2.2,0,4-1.8,4-4s-1.8-4-4-4s-4,1.8-4,4S332.1,725.5,334.3,725.5"/>
		<path class="st2" d="M344.1,725.5c2.2,0,4-1.8,4-4s-1.8-4-4-4s-4,1.8-4,4S341.9,725.5,344.1,725.5"/>
		<path class="st2" d="M353.8,725.5c2.2,0,4-1.8,4-4s-1.8-4-4-4s-4,1.8-4,4S351.6,725.5,353.8,725.5"/>
		<path class="st2" d="M363.6,725.5c2.2,0,4-1.8,4-4s-1.8-4-4-4s-4,1.8-4,4S361.4,725.5,363.6,725.5"/>
		<path class="st2" d="M373.3,725.5c2.2,0,4-1.8,4-4s-1.8-4-4-4s-4,1.8-4,4S371.1,725.5,373.3,725.5"/>
		<path class="st2" d="M383.1,725.5c2.2,0,4-1.8,4-4s-1.8-4-4-4s-4,1.8-4,4S380.9,725.5,383.1,725.5"/>
		<path class="st2" d="M392.8,725.5c2.2,0,4-1.8,4-4s-1.8-4-4-4s-4,1.8-4,4S390.6,725.5,392.8,725.5"/>
		<path class="st2" d="M402.6,725.5c2.2,0,4-1.8,4-4s-1.8-4-4-4s-4,1.8-4,4S400.4,725.5,402.6,725.5"/>
		<path class="st2" d="M412.3,725.5c2.2,0,4-1.8,4-4s-1.8-4-4-4s-4,1.8-4,4S410.1,725.5,412.3,725.5"/>
		<path class="st2" d="M305.1,734.7c2.2,0,4-1.8,4-4s-1.8-4-4-4s-4,1.8-4,4S302.9,734.7,305.1,734.7"/>
		<path class="st2" d="M314.8,734.7c2.2,0,4-1.8,4-4s-1.8-4-4-4s-4,1.8-4,4S312.6,734.7,314.8,734.7"/>
		<path class="st2" d="M324.6,734.7c2.2,0,4-1.8,4-4s-1.8-4-4-4s-4,1.8-4,4S322.4,734.7,324.6,734.7"/>
		<path class="st2" d="M334.3,734.7c2.2,0,4-1.8,4-4s-1.8-4-4-4s-4,1.8-4,4S332.1,734.7,334.3,734.7"/>
		<path class="st2" d="M344.1,734.7c2.2,0,4-1.8,4-4s-1.8-4-4-4s-4,1.8-4,4S341.9,734.7,344.1,734.7"/>
		<path class="st2" d="M353.8,734.7c2.2,0,4-1.8,4-4s-1.8-4-4-4s-4,1.8-4,4S351.6,734.7,353.8,734.7"/>
		<path class="st2" d="M363.6,734.7c2.2,0,4-1.8,4-4s-1.8-4-4-4s-4,1.8-4,4S361.4,734.7,363.6,734.7"/>
		<path class="st2" d="M373.3,734.7c2.2,0,4-1.8,4-4s-1.8-4-4-4s-4,1.8-4,4S371.1,734.7,373.3,734.7"/>
		<path class="st2" d="M383.1,734.7c2.2,0,4-1.8,4-4s-1.8-4-4-4s-4,1.8-4,4S380.9,734.7,383.1,734.7"/>
		<path class="st2" d="M392.8,734.7c2.2,0,4-1.8,4-4s-1.8-4-4-4s-4,1.8-4,4S390.6,734.7,392.8,734.7"/>
		<path class="st2" d="M402.6,734.7c2.2,0,4-1.8,4-4s-1.8-4-4-4s-4,1.8-4,4S400.4,734.7,402.6,734.7"/>
		<path class="st2" d="M412.3,734.7c2.2,0,4-1.8,4-4s-1.8-4-4-4s-4,1.8-4,4S410.1,734.7,412.3,734.7"/>
		<path class="st2" d="M305.1,744c2.2,0,4-1.8,4-4s-1.8-4-4-4s-4,1.8-4,4S302.9,744,305.1,744"/>
		<path class="st2" d="M314.8,744c2.2,0,4-1.8,4-4s-1.8-4-4-4s-4,1.8-4,4S312.6,744,314.8,744"/>
		<path class="st2" d="M324.6,744c2.2,0,4-1.8,4-4s-1.8-4-4-4s-4,1.8-4,4S322.4,744,324.6,744"/>
		<path class="st2" d="M334.3,744c2.2,0,4-1.8,4-4s-1.8-4-4-4s-4,1.8-4,4S332.1,744,334.3,744"/>
		<path class="st2" d="M344.1,744c2.2,0,4-1.8,4-4s-1.8-4-4-4s-4,1.8-4,4S341.9,744,344.1,744"/>
		<path class="st2" d="M353.8,744c2.2,0,4-1.8,4-4s-1.8-4-4-4s-4,1.8-4,4S351.6,744,353.8,744"/>
		<path class="st2" d="M363.6,744c2.2,0,4-1.8,4-4s-1.8-4-4-4s-4,1.8-4,4S361.4,744,363.6,744"/>
		<path class="st2" d="M373.3,744c2.2,0,4-1.8,4-4s-1.8-4-4-4s-4,1.8-4,4S371.1,744,373.3,744"/>
		<path class="st2" d="M383.1,744c2.2,0,4-1.8,4-4s-1.8-4-4-4s-4,1.8-4,4S380.9,744,383.1,744"/>
		<path class="st2" d="M392.8,744c2.2,0,4-1.8,4-4s-1.8-4-4-4s-4,1.8-4,4S390.6,744,392.8,744"/>
		<path class="st2" d="M402.6,744c2.2,0,4-1.8,4-4s-1.8-4-4-4s-4,1.8-4,4S400.4,744,402.6,744"/>
		<path class="st2" d="M412.3,744c2.2,0,4-1.8,4-4s-1.8-4-4-4s-4,1.8-4,4S410.1,744,412.3,744"/>
		<path class="st2" d="M305.1,753.2c2.2,0,4-1.8,4-4s-1.8-4-4-4s-4,1.8-4,4C301.1,751.5,302.9,753.2,305.1,753.2"/>
		<path class="st2" d="M314.8,753.2c2.2,0,4-1.8,4-4s-1.8-4-4-4s-4,1.8-4,4C310.8,751.5,312.6,753.2,314.8,753.2"/>
		<path class="st2" d="M324.6,753.2c2.2,0,4-1.8,4-4s-1.8-4-4-4s-4,1.8-4,4C320.6,751.5,322.4,753.2,324.6,753.2"/>
		<path class="st2" d="M334.3,753.2c2.2,0,4-1.8,4-4s-1.8-4-4-4s-4,1.8-4,4C330.3,751.5,332.1,753.2,334.3,753.2"/>
		<path class="st2" d="M344.1,753.2c2.2,0,4-1.8,4-4s-1.8-4-4-4s-4,1.8-4,4C340.1,751.5,341.9,753.2,344.1,753.2"/>
		<path class="st2" d="M353.8,753.2c2.2,0,4-1.8,4-4s-1.8-4-4-4s-4,1.8-4,4C349.8,751.5,351.6,753.2,353.8,753.2"/>
		<path class="st2" d="M363.6,753.2c2.2,0,4-1.8,4-4s-1.8-4-4-4s-4,1.8-4,4C359.6,751.5,361.4,753.2,363.6,753.2"/>
		<path class="st2" d="M373.3,753.2c2.2,0,4-1.8,4-4s-1.8-4-4-4s-4,1.8-4,4C369.3,751.5,371.1,753.2,373.3,753.2"/>
		<path class="st2" d="M383.1,753.2c2.2,0,4-1.8,4-4s-1.8-4-4-4s-4,1.8-4,4C379.1,751.5,380.9,753.2,383.1,753.2"/>
		<path class="st2" d="M392.8,753.2c2.2,0,4-1.8,4-4s-1.8-4-4-4s-4,1.8-4,4C388.8,751.5,390.6,753.2,392.8,753.2"/>
		<path class="st2" d="M402.6,753.2c2.2,0,4-1.8,4-4s-1.8-4-4-4s-4,1.8-4,4C398.6,751.5,400.4,753.2,402.6,753.2"/>
		<path class="st2" d="M412.3,753.2c2.2,0,4-1.8,4-4s-1.8-4-4-4s-4,1.8-4,4C408.3,751.5,410.1,753.2,412.3,753.2"/>
		<path class="st2" d="M305.1,762.5c2.2,0,4-1.8,4-4s-1.8-4-4-4s-4,1.8-4,4S302.9,762.5,305.1,762.5"/>
		<path class="st2" d="M314.8,762.5c2.2,0,4-1.8,4-4s-1.8-4-4-4s-4,1.8-4,4S312.6,762.5,314.8,762.5"/>
		<path class="st2" d="M324.6,762.5c2.2,0,4-1.8,4-4s-1.8-4-4-4s-4,1.8-4,4S322.4,762.5,324.6,762.5"/>
		<path class="st2" d="M334.3,762.5c2.2,0,4-1.8,4-4s-1.8-4-4-4s-4,1.8-4,4S332.1,762.5,334.3,762.5"/>
		<path class="st2" d="M344.1,762.5c2.2,0,4-1.8,4-4s-1.8-4-4-4s-4,1.8-4,4S341.9,762.5,344.1,762.5"/>
		<path class="st2" d="M353.8,762.5c2.2,0,4-1.8,4-4s-1.8-4-4-4s-4,1.8-4,4S351.6,762.5,353.8,762.5"/>
		<path class="st2" d="M363.6,762.5c2.2,0,4-1.8,4-4s-1.8-4-4-4s-4,1.8-4,4S361.4,762.5,363.6,762.5"/>
		<path class="st2" d="M373.3,762.5c2.2,0,4-1.8,4-4s-1.8-4-4-4s-4,1.8-4,4S371.1,762.5,373.3,762.5"/>
		<path class="st2" d="M383.1,762.5c2.2,0,4-1.8,4-4s-1.8-4-4-4s-4,1.8-4,4S380.9,762.5,383.1,762.5"/>
		<path class="st2" d="M392.8,762.5c2.2,0,4-1.8,4-4s-1.8-4-4-4s-4,1.8-4,4S390.6,762.5,392.8,762.5"/>
		<path class="st2" d="M402.6,762.5c2.2,0,4-1.8,4-4s-1.8-4-4-4s-4,1.8-4,4S400.4,762.5,402.6,762.5"/>
		<path class="st2" d="M412.3,762.5c2.2,0,4-1.8,4-4s-1.8-4-4-4s-4,1.8-4,4S410.1,762.5,412.3,762.5"/>
		<path class="st2" d="M305.1,771.8c2.2,0,4-1.8,4-4s-1.8-4-4-4s-4,1.8-4,4S302.9,771.8,305.1,771.8"/>
		<path class="st2" d="M314.8,771.8c2.2,0,4-1.8,4-4s-1.8-4-4-4s-4,1.8-4,4S312.6,771.8,314.8,771.8"/>
		<path class="st2" d="M324.6,771.8c2.2,0,4-1.8,4-4s-1.8-4-4-4s-4,1.8-4,4S322.4,771.8,324.6,771.8"/>
		<path class="st2" d="M334.3,771.8c2.2,0,4-1.8,4-4s-1.8-4-4-4s-4,1.8-4,4S332.1,771.8,334.3,771.8"/>
		<path class="st2" d="M344.1,771.8c2.2,0,4-1.8,4-4s-1.8-4-4-4s-4,1.8-4,4S341.9,771.8,344.1,771.8"/>
		<path class="st2" d="M353.8,771.8c2.2,0,4-1.8,4-4s-1.8-4-4-4s-4,1.8-4,4S351.6,771.8,353.8,771.8"/>
		<path class="st2" d="M363.6,771.8c2.2,0,4-1.8,4-4s-1.8-4-4-4s-4,1.8-4,4S361.4,771.8,363.6,771.8"/>
		<path class="st2" d="M373.3,771.8c2.2,0,4-1.8,4-4s-1.8-4-4-4s-4,1.8-4,4S371.1,771.8,373.3,771.8"/>
		<path class="st2" d="M383.1,771.8c2.2,0,4-1.8,4-4s-1.8-4-4-4s-4,1.8-4,4S380.9,771.8,383.1,771.8"/>
		<path class="st2" d="M392.8,771.8c2.2,0,4-1.8,4-4s-1.8-4-4-4s-4,1.8-4,4S390.6,771.8,392.8,771.8"/>
		<path class="st2" d="M402.6,771.8c2.2,0,4-1.8,4-4s-1.8-4-4-4s-4,1.8-4,4S400.4,771.8,402.6,771.8"/>
		<path class="st2" d="M412.3,771.8c2.2,0,4-1.8,4-4s-1.8-4-4-4s-4,1.8-4,4S410.1,771.8,412.3,771.8"/>
		<path class="st2" d="M305.1,781c2.2,0,4-1.8,4-4s-1.8-4-4-4s-4,1.8-4,4C301.1,779.3,302.9,781,305.1,781"/>
		<path class="st2" d="M314.8,781c2.2,0,4-1.8,4-4s-1.8-4-4-4s-4,1.8-4,4C310.8,779.3,312.6,781,314.8,781"/>
		<path class="st2" d="M324.6,781c2.2,0,4-1.8,4-4s-1.8-4-4-4s-4,1.8-4,4C320.6,779.3,322.4,781,324.6,781"/>
		<path class="st2" d="M334.3,781c2.2,0,4-1.8,4-4s-1.8-4-4-4s-4,1.8-4,4C330.3,779.3,332.1,781,334.3,781"/>
		<path class="st2" d="M344.1,781c2.2,0,4-1.8,4-4s-1.8-4-4-4s-4,1.8-4,4C340.1,779.3,341.9,781,344.1,781"/>
		<path class="st2" d="M353.8,781c2.2,0,4-1.8,4-4s-1.8-4-4-4s-4,1.8-4,4C349.8,779.3,351.6,781,353.8,781"/>
		<path class="st2" d="M363.6,781c2.2,0,4-1.8,4-4s-1.8-4-4-4s-4,1.8-4,4C359.6,779.3,361.4,781,363.6,781"/>
		<path class="st2" d="M373.3,781c2.2,0,4-1.8,4-4s-1.8-4-4-4s-4,1.8-4,4C369.3,779.3,371.1,781,373.3,781"/>
		<path class="st2" d="M383.1,781c2.2,0,4-1.8,4-4s-1.8-4-4-4s-4,1.8-4,4C379.1,779.3,380.9,781,383.1,781"/>
		<path class="st2" d="M392.8,781c2.2,0,4-1.8,4-4s-1.8-4-4-4s-4,1.8-4,4C388.8,779.3,390.6,781,392.8,781"/>
		<path class="st2" d="M402.6,781c2.2,0,4-1.8,4-4s-1.8-4-4-4s-4,1.8-4,4C398.6,779.3,400.4,781,402.6,781"/>
		<path class="st2" d="M412.3,781c2.2,0,4-1.8,4-4s-1.8-4-4-4s-4,1.8-4,4C408.3,779.3,410.1,781,412.3,781"/>
		<path class="st2" d="M305.1,790.3c2.2,0,4-1.8,4-4s-1.8-4-4-4s-4,1.8-4,4S302.9,790.3,305.1,790.3"/>
		<path class="st2" d="M314.8,790.3c2.2,0,4-1.8,4-4s-1.8-4-4-4s-4,1.8-4,4S312.6,790.3,314.8,790.3"/>
		<path class="st2" d="M324.6,790.3c2.2,0,4-1.8,4-4s-1.8-4-4-4s-4,1.8-4,4S322.4,790.3,324.6,790.3"/>
		<path class="st2" d="M334.3,790.3c2.2,0,4-1.8,4-4s-1.8-4-4-4s-4,1.8-4,4S332.1,790.3,334.3,790.3"/>
		<path class="st2" d="M344.1,790.3c2.2,0,4-1.8,4-4s-1.8-4-4-4s-4,1.8-4,4S341.9,790.3,344.1,790.3"/>
		<path class="st2" d="M353.8,790.3c2.2,0,4-1.8,4-4s-1.8-4-4-4s-4,1.8-4,4S351.6,790.3,353.8,790.3"/>
		<path class="st2" d="M363.6,790.3c2.2,0,4-1.8,4-4s-1.8-4-4-4s-4,1.8-4,4S361.4,790.3,363.6,790.3"/>
		<path class="st2" d="M373.3,790.3c2.2,0,4-1.8,4-4s-1.8-4-4-4s-4,1.8-4,4S371.1,790.3,373.3,790.3"/>
		<path class="st2" d="M383.1,790.3c2.2,0,4-1.8,4-4s-1.8-4-4-4s-4,1.8-4,4S380.9,790.3,383.1,790.3"/>
		<path class="st2" d="M392.8,790.3c2.2,0,4-1.8,4-4s-1.8-4-4-4s-4,1.8-4,4S390.6,790.3,392.8,790.3"/>
		<path class="st2" d="M402.6,790.3c2.2,0,4-1.8,4-4s-1.8-4-4-4s-4,1.8-4,4S400.4,790.3,402.6,790.3"/>
		<path class="st2" d="M412.3,790.3c2.2,0,4-1.8,4-4s-1.8-4-4-4s-4,1.8-4,4S410.1,790.3,412.3,790.3"/>
		<path class="st2" d="M305.1,799.6c2.2,0,4-1.8,4-4s-1.8-4-4-4s-4,1.8-4,4C301.1,797.8,302.9,799.6,305.1,799.6"/>
		<path class="st2" d="M314.8,799.6c2.2,0,4-1.8,4-4s-1.8-4-4-4s-4,1.8-4,4C310.8,797.8,312.6,799.6,314.8,799.6"/>
		<path class="st2" d="M324.6,799.6c2.2,0,4-1.8,4-4s-1.8-4-4-4s-4,1.8-4,4C320.6,797.8,322.4,799.6,324.6,799.6"/>
		<path class="st2" d="M334.3,799.6c2.2,0,4-1.8,4-4s-1.8-4-4-4s-4,1.8-4,4C330.3,797.8,332.1,799.6,334.3,799.6"/>
		<path class="st2" d="M344.1,799.6c2.2,0,4-1.8,4-4s-1.8-4-4-4s-4,1.8-4,4C340.1,797.8,341.9,799.6,344.1,799.6"/>
		<path class="st2" d="M353.8,799.6c2.2,0,4-1.8,4-4s-1.8-4-4-4s-4,1.8-4,4C349.8,797.8,351.6,799.6,353.8,799.6"/>
		<path class="st2" d="M363.6,799.6c2.2,0,4-1.8,4-4s-1.8-4-4-4s-4,1.8-4,4C359.6,797.8,361.4,799.6,363.6,799.6"/>
		<path class="st2" d="M373.3,799.6c2.2,0,4-1.8,4-4s-1.8-4-4-4s-4,1.8-4,4C369.3,797.8,371.1,799.6,373.3,799.6"/>
		<path class="st2" d="M383.1,799.6c2.2,0,4-1.8,4-4s-1.8-4-4-4s-4,1.8-4,4C379.1,797.8,380.9,799.6,383.1,799.6"/>
		<path class="st2" d="M392.8,799.6c2.2,0,4-1.8,4-4s-1.8-4-4-4s-4,1.8-4,4C388.8,797.8,390.6,799.6,392.8,799.6"/>
		<path class="st2" d="M402.6,799.6c2.2,0,4-1.8,4-4s-1.8-4-4-4s-4,1.8-4,4C398.6,797.8,400.4,799.6,402.6,799.6"/>
		<path class="st2" d="M412.3,799.6c2.2,0,4-1.8,4-4s-1.8-4-4-4s-4,1.8-4,4C408.3,797.8,410.1,799.6,412.3,799.6"/>
	</g>
	<path class="st2" d="M35.2,701.9c-6.8,5.4-7.4,13.7-10.7,18.9c-3.2,5.2-10.1,11.1-11.8,15.2c-1.7,4.1,0.2,13-1.2,16
		s-6.5,11.1-6,17.5c0.5,6.3,3.7,13,4.6,17.8c0.9,4.8,0.4,10,3,13s5.2,5.9,9.3,7.6c4.1,1.7,8,6.9,12.3,8.4c4.4,1.5,9.4,1.1,17-1.9
		s16.3-7.8,19.7-7.8s14.6,0.4,21.9-4.3c7.3-4.6,7.8-19.9,5.6-26.2s-8.2-22.3-10.8-26.7c-2.6-4.5-7.4-6.3-7.1-10.8
		c0.4-4.5,2.6-13.9,1.1-20.3c-1.5-6.4-6.7-15.3-12.6-15.7c-5.9-0.4-12.1,1.2-16.2-0.4C49.1,700.7,39.8,698.2,35.2,701.9"/>
	<path class="st3" d="M484.6,165c-4.4,0-8.4,8.7-11.1,22.6c-2.7-13.8-6.7-22.6-11.1-22.6c-4.4,0-8.4,8.7-11.1,22.6
		c-2.7-13.8-6.7-22.6-11.1-22.6c-4.4,0-8.4,8.7-11.1,22.6c-2.7-13.8-6.7-22.6-11.1-22.6c-4.4,0-8.4,8.7-11.1,22.6
		c-2.7-13.8-6.7-22.6-11.1-22.6c-4.4,0-8.4,8.7-11.1,22.6c-2.7-13.8-6.7-22.6-11.1-22.6c-4.4,0-8.4,8.7-11.1,22.6
		c-2.7-13.8-6.7-22.6-11.1-22.6c-4.4,0-8.4,8.7-11.1,22.6c-2.7-13.8-6.7-22.6-11.1-22.6c-4.4,0-8.4,8.7-11.1,22.6
		c-2.7-13.8-6.7-22.6-11.1-22.6c-4.4,0-8.4,8.7-11.1,22.6c-2.7-13.8-6.7-22.6-11.1-22.6c-4.4,0-8.4,8.7-11.1,22.6
		c-2.7-13.8-6.7-22.6-11.1-22.6c-4.4,0-8.4,8.7-11.1,22.6c-2.7-13.8-6.7-22.6-11.1-22.6c-4.4,0-8.4,8.7-11.1,22.6
		c-2.7-13.8-6.7-22.6-11.1-22.6c-8.2,0-14.8,29.8-14.8,66.6c0,36.8,6.6,66.6,14.8,66.6c4.4,0,8.4-8.7,11.1-22.6
		c2.7,13.8,6.7,22.6,11.1,22.6c4.4,0,8.4-8.7,11.1-22.6c2.7,13.8,6.7,22.6,11.1,22.6c4.4,0,8.4-8.7,11.1-22.6
		c2.7,13.8,6.7,22.6,11.1,22.6c4.4,0,8.4-8.7,11.1-22.6c2.7,13.8,6.7,22.6,11.1,22.6c4.4,0,8.4-8.7,11.1-22.6
		c2.7,13.8,6.7,22.6,11.1,22.6c4.4,0,8.4-8.7,11.1-22.6c2.7,13.8,6.7,22.6,11.1,22.6c4.4,0,8.4-8.7,11.1-22.6
		c2.7,13.8,6.7,22.6,11.1,22.6c4.4,0,8.4-8.7,11.1-22.6c2.7,13.8,6.7,22.6,11.1,22.6c4.4,0,8.4-8.7,11.1-22.6
		c2.7,13.8,6.7,22.6,11.1,22.6c4.4,0,8.4-8.7,11.1-22.6c2.7,13.8,6.7,22.6,11.1,22.6c4.4,0,8.4-8.7,11.1-22.6
		c2.7,13.8,6.7,22.6,11.1,22.6c4.4,0,8.4-8.7,11.1-22.6c2.7,13.8,6.7,22.6,11.1,22.6c8.2,0,14.8-29.8,14.8-66.6
		C499.4,194.8,492.8,165,484.6,165z"/>
	<polygon class="st3" points="925.2,900 775.7,900 849.5,969.5 999,969.5 	"/>
	<polygon class="st3" points="899.3,969.5 799.7,969.5 799.7,1063.3 700,1063.3 700,1110.3 700,1110.3 700,1111.6 999,1111.6 
		999,1063.3 899.3,1063.3 	"/>
</g>
<g id="Layer_2">
	<g>
		<rect class="st4" width="1000" height="1000"/>
		<line class="st4" x1="0" y1="900" x2="1000" y2="900"/>
		<line class="st4" x1="0" y1="800" x2="1000" y2="800"/>
		<line class="st4" x1="0" y1="700" x2="1000" y2="700"/>
		<line class="st4" x1="0" y1="600" x2="1000" y2="600"/>
		<line class="st4" x1="0" y1="500" x2="1000" y2="500"/>
		<line class="st4" x1="0" y1="400" x2="1000" y2="400"/>
		<line class="st4" x1="0" y1="300" x2="1000" y2="300"/>
		<line class="st4" x1="0" y1="200" x2="1000" y2="200"/>
		<line class="st4" x1="0" y1="100" x2="1000" y2="100"/>
		<line class="st4" x1="900" y1="0" x2="900" y2="1000"/>
		<line class="st4" x1="800" y1="0" x2="800" y2="1000"/>
		<line class="st4" x1="700" y1="0" x2="700" y2="1000"/>
		<line class="st4" x1="600" y1="0" x2="600" y2="1000"/>
		<line class="st4" x1="500" y1="0" x2="500" y2="1000"/>
		<line class="st4" x1="400" y1="0" x2="400" y2="1000"/>
		<line class="st4" x1="300" y1="0" x2="300" y2="1000"/>
		<line class="st4" x1="200" y1="0" x2="200" y2="1000"/>
		<line class="st4" x1="100" y1="0" x2="100" y2="1000"/>
	</g>
</g>
</svg>
