<svg xmlns="http://www.w3.org/2000/svg" viewBox="0 0 1000 1000"><defs><style>.cls-1{fill:#e60013;}.cls-2{fill:#fff100;}.cls-3{fill:#0d3388;}.cls-4{fill:none;stroke:#000;stroke-miterlimit:10;stroke-width:0.5px;}</style></defs><title>selected</title><g id="레이어_1" data-name="레이어 1"><rect class="cls-1" x="99.2" y="102.15" width="243.8" height="12.3"/><rect class="cls-1" x="99.2" y="127.55" width="243.8" height="12.3"/><rect class="cls-1" x="99.2" y="153.05" width="243.8" height="12.3"/><rect class="cls-1" x="99.2" y="178.55" width="243.8" height="12.3"/><polygon class="cls-1" points="176.25 800 184.05 813.4 194.85 802.3 199.25 817.1 212.35 808.9 213.05 824.3 227.75 819.4 224.65 834.6 240.15 833.4 233.55 847.3 248.85 849.9 239.05 861.9 253.35 868 240.95 877.3 253.35 886.6 239.05 892.7 248.85 904.7 233.55 907.2 240.15 921.2 224.65 920 227.75 935.1 213.05 930.3 212.35 945.7 199.25 937.5 194.85 952.3 184.05 941.2 176.25 954.5 168.45 941.2 157.75 952.3 153.35 937.5 140.25 945.7 139.55 930.3 124.85 935.1 127.85 920 112.45 921.2 119.05 907.2 103.75 904.7 113.45 892.7 99.25 886.6 111.65 877.3 99.25 868 113.45 861.9 103.75 849.9 119.05 847.3 112.45 833.4 127.85 834.6 124.85 819.4 139.55 824.3 140.25 808.9 153.35 817.1 157.75 802.3 168.45 813.4 176.25 800"/><rect class="cls-1" x="400" y="858.95" width="260.4" height="122.3"/><polygon class="cls-1" points="260.86 299 321.76 406.6 200.06 406.6 260.86 299"/><path class="cls-1" d="M529.94,7.11c-6.8,5.4-7.4,13.7-10.7,18.9s-10.1,11.1-11.8,15.2.2,13-1.2,16-6.5,11.1-6,17.5,3.7,13,4.6,17.8.4,10,3,13,5.2,5.9,9.3,7.6,8,6.9,12.3,8.4,9.4,1.1,17-1.9,16.3-7.8,19.7-7.8,14.6.4,21.9-4.3,7.8-19.9,5.6-26.2-8.2-22.3-10.8-26.7-7.4-6.3-7.1-10.8,2.6-13.9,1.1-20.3-6.7-15.3-12.6-15.7S552.14,9,548,7.41s-13.4-4-18.1-.3"/><polygon class="cls-1" points="0.65 257.58 146.25 257.58 73.05 301.18 0.65 257.58"/><rect class="cls-1" x="726.5" y="664" width="31.9" height="117.2"/><path class="cls-1" d="M961.45,485a15.2,15.2,0,1,1,15.2,15.4,15.3,15.3,0,0,1-15.2-15.4"/><path class="cls-1" d="M953.85,531.55a19,19,0,1,1,19,19.2,19.1,19.1,0,0,1-19-19.2"/><path class="cls-1" d="M923.35,720.05a34.2,34.2,0,1,1,34.2,34.6,34.4,34.4,0,0,1-34.2-34.6"/><path class="cls-1" d="M900.55,812.85c0-25.5,20.4-46.1,45.6-46.1s45.6,20.6,45.6,46.1-20.4,46.1-45.6,46.1-45.6-20.6-45.6-46.1"/><path class="cls-1" d="M943.15,648.75a24.3,24.3,0,1,1,24.3,24.6,24.46,24.46,0,0,1-24.3-24.6"/><path class="cls-1" d="M943.15,587.45a24.3,24.3,0,1,1,24.3,24.6,24.46,24.46,0,0,1-24.3-24.6"/><path class="cls-1" d="M969.05,446a11.4,11.4,0,1,1,11.4,11.5,11.42,11.42,0,0,1-11.4-11.5"/><path class="cls-2" d="M260.91,34.85a14.46,14.46,0,1,1-14.46-14.46,14.53,14.53,0,0,1,14.46,14.46"/><path class="cls-2" d="M317.34,34.85a14.46,14.46,0,1,1-14.46-14.46,14.53,14.53,0,0,1,14.46,14.46"/><path class="cls-2" d="M344.85,63.77a14.46,14.46,0,1,1-14.46-14.46,14.53,14.53,0,0,1,14.46,14.46"/><path class="cls-2" d="M372.49,63.77A14.46,14.46,0,1,1,358,49.31a14.53,14.53,0,0,1,14.46,14.46"/><path class="cls-2" d="M400,63.77a14.46,14.46,0,1,1-14.46-14.46A14.53,14.53,0,0,1,400,63.77"/><path class="cls-2" d="M180.17,63.77a14.46,14.46,0,1,1-14.46-14.46,14.53,14.53,0,0,1,14.46,14.46"/><path class="cls-2" d="M207.68,63.77a14.46,14.46,0,1,1-14.46-14.46,14.53,14.53,0,0,1,14.46,14.46"/><path class="cls-2" d="M235.19,63.77a14.46,14.46,0,1,1-14.46-14.46,14.53,14.53,0,0,1,14.46,14.46"/><path class="cls-2" d="M58.49,68.63A28.92,28.92,0,1,1,29.57,39.71,28.89,28.89,0,0,1,58.49,68.63"/><path class="cls-2" d="M116.32,68.63A28.92,28.92,0,1,1,87.4,39.71a28.88,28.88,0,0,1,28.92,28.92"/><path class="cls-2" d="M289.83,34.85a14.46,14.46,0,1,1-14.46-14.46,14.53,14.53,0,0,1,14.46,14.46"/><path class="cls-2" d="M155,34.85a14.46,14.46,0,1,1-14.45-14.46A14.52,14.52,0,0,1,155,34.85"/><path class="cls-2" d="M127.45,34.85A14.46,14.46,0,1,1,113,20.39a14.52,14.52,0,0,1,14.45,14.46"/><rect class="cls-2" x="758.58" y="143.76" width="85.56" height="113.71"/><rect class="cls-2" x="845.92" y="143.87" width="85.56" height="113.71"/><rect class="cls-2" x="933.27" y="17.8" width="64.53" height="97.58"/><rect class="cls-2" x="850.82" width="53.96" height="115.27"/><rect class="cls-2" x="671.79" y="303.87" width="70.1" height="96.02"/><rect class="cls-2" x="770.71" y="284.06" width="77.44" height="115.94"/><rect class="cls-2" x="876.97" y="366.18" width="98.25" height="33.27"/><rect class="cls-2" x="702.59" y="34.64" width="96.02" height="65.98"/><rect class="cls-2" x="876.97" y="366.18" width="98.25" height="33.27"/><path class="cls-2" d="M436.9,538.75a39.1,39.1,0,1,0-39.2-39.1,39.09,39.09,0,0,0,39.2,39.1"/><path class="cls-2" d="M353.3,538.75a39.1,39.1,0,1,0-39.1-39.1,39.09,39.09,0,0,0,39.1,39.1"/><path class="cls-2" d="M463,446a22.8,22.8,0,1,0-22.8-22.8A22.79,22.79,0,0,0,463,446"/><path class="cls-2" d="M409.4,446a22.8,22.8,0,1,0-22.8-22.8A22.79,22.79,0,0,0,409.4,446"/><path class="cls-2" d="M616.2,679.2a16.8,16.8,0,1,1-16.8-16.8,16.77,16.77,0,0,1,16.8,16.8m61,0A77.72,77.72,0,0,0,556,614.7l-8.5,122.4a77.75,77.75,0,0,0,129.7-57.9"/><path class="cls-3" d="M578.13,202.38c-3.2-3.2-10.3-1.6-17.9,3.4a5.45,5.45,0,0,0-1.6-3.4c-3.2-3.2-10.3-1.6-17.9,3.4a5.45,5.45,0,0,0-1.6-3.4c-3.2-3.2-10.3-1.6-17.9,3.4a5.45,5.45,0,0,0-1.6-3.4c-3.2-3.2-10.3-1.6-17.9,3.4a5.45,5.45,0,0,0-1.6-3.4c-3.2-3.2-10.3-1.6-17.9,3.4a5.45,5.45,0,0,0-1.6-3.4c-3.2-3.2-10.3-1.6-17.9,3.4a5.45,5.45,0,0,0-1.6-3.4c-3.2-3.2-10.3-1.6-17.9,3.4a5.45,5.45,0,0,0-1.6-3.4c-4.4-4.4-16.4.4-26.7,10.7s-15.1,22.3-10.7,26.8c3.2,3.2,10.3,1.6,17.9-3.4a5.45,5.45,0,0,0,1.6,3.4c3.2,3.2,10.3,1.6,17.9-3.4a5.45,5.45,0,0,0,1.6,3.4c3.2,3.2,10.3,1.6,17.9-3.4a5.45,5.45,0,0,0,1.6,3.4c3.2,3.2,10.3,1.6,17.9-3.4a5.45,5.45,0,0,0,1.6,3.4c3.2,3.2,10.3,1.6,17.9-3.4a5.45,5.45,0,0,0,1.6,3.4c3.2,3.2,10.3,1.6,17.9-3.4a5.45,5.45,0,0,0,1.6,3.4c3.2,3.2,10.3,1.6,17.9-3.4a5.45,5.45,0,0,0,1.6,3.4c4.4,4.4,16.4-.4,26.8-10.7S582.63,206.88,578.13,202.38Z"/><path class="cls-3" d="M104.3,565a10.2,10.2,0,1,1-10.2-10.2A10.18,10.18,0,0,1,104.3,565"/><path class="cls-3" d="M124.6,565a10.2,10.2,0,1,1-10.2-10.2A10.18,10.18,0,0,1,124.6,565"/><path class="cls-3" d="M143.9,565a10.2,10.2,0,1,1-10.2-10.2A10.18,10.18,0,0,1,143.9,565"/><path class="cls-3" d="M163.2,565A10.2,10.2,0,1,1,153,554.8,10.18,10.18,0,0,1,163.2,565"/><path class="cls-3" d="M182.5,565a10.2,10.2,0,1,1-10.2-10.2A10.18,10.18,0,0,1,182.5,565"/><path class="cls-3" d="M201.8,565a10.2,10.2,0,1,1-10.2-10.2A10.18,10.18,0,0,1,201.8,565"/><path class="cls-3" d="M221.1,565a10.2,10.2,0,1,1-10.2-10.2A10.18,10.18,0,0,1,221.1,565"/><path class="cls-3" d="M240.4,565a10.2,10.2,0,1,1-10.2-10.2A10.18,10.18,0,0,1,240.4,565"/><path class="cls-3" d="M259.7,571.2A10.2,10.2,0,1,1,249.5,561a10.18,10.18,0,0,1,10.2,10.2"/><path class="cls-3" d="M396.3,612.7a10.2,10.2,0,1,1-10.2-10.2,10.18,10.18,0,0,1,10.2,10.2"/><path class="cls-3" d="M377,606.9a10.2,10.2,0,1,1-10.2-10.2A10.18,10.18,0,0,1,377,606.9"/><path class="cls-3" d="M357.6,601.1a10.2,10.2,0,1,1-10.2-10.2,10.18,10.18,0,0,1,10.2,10.2"/><path class="cls-3" d="M338.3,595.3a10.2,10.2,0,1,1-10.2-10.2,10.18,10.18,0,0,1,10.2,10.2"/><path class="cls-3" d="M319,589.5a10.2,10.2,0,1,1-10.2-10.2A10.18,10.18,0,0,1,319,589.5"/><path class="cls-3" d="M299.6,583.7a10.2,10.2,0,1,1-10.2-10.2,10.18,10.18,0,0,1,10.2,10.2"/><path class="cls-3" d="M280.3,577.4a10.2,10.2,0,1,1-10.2-10.2,10.18,10.18,0,0,1,10.2,10.2"/><path class="cls-3" d="M415.6,606.5a10.2,10.2,0,1,1-10.2-10.2,10.18,10.18,0,0,1,10.2,10.2"/><path class="cls-3" d="M557.7,563a10.2,10.2,0,1,1-10.2-10.2A10.18,10.18,0,0,1,557.7,563"/><path class="cls-3" d="M537.4,569.2A10.2,10.2,0,1,1,527.2,559a10.18,10.18,0,0,1,10.2,10.2"/><path class="cls-3" d="M517.1,575.4a10.2,10.2,0,1,1-10.2-10.2,10.18,10.18,0,0,1,10.2,10.2"/><path class="cls-3" d="M496.8,581.6a10.2,10.2,0,1,1-10.2-10.2,10.18,10.18,0,0,1,10.2,10.2"/><path class="cls-3" d="M476.5,587.8a10.2,10.2,0,1,1-10.2-10.2,10.18,10.18,0,0,1,10.2,10.2"/><path class="cls-3" d="M456.2,594.1A10.2,10.2,0,1,1,446,583.9a10.18,10.18,0,0,1,10.2,10.2"/><path class="cls-3" d="M435.9,600.3a10.2,10.2,0,1,1-10.2-10.2,10.18,10.18,0,0,1,10.2,10.2"/><path class="cls-3" d="M578.1,556.8a10.2,10.2,0,1,1-10.2-10.2,10.31,10.31,0,0,1,10.2,10.2"/><path class="cls-3" d="M720.2,557.6A10.2,10.2,0,1,1,710,547.4a10.18,10.18,0,0,1,10.2,10.2"/><path class="cls-3" d="M699.9,552.7a10.2,10.2,0,1,1-10.2-10.2,10.31,10.31,0,0,1,10.2,10.2"/><path class="cls-3" d="M760.8,567.2A10.2,10.2,0,1,1,750.6,557a10.31,10.31,0,0,1,10.2,10.2"/><path class="cls-3" d="M740.5,562.4a10.2,10.2,0,1,1-10.2-10.2,10.18,10.18,0,0,1,10.2,10.2"/><path class="cls-3" d="M679.6,547.9a10.2,10.2,0,1,1-10.2-10.2,10.18,10.18,0,0,1,10.2,10.2"/><path class="cls-3" d="M659.3,543.1a10.2,10.2,0,1,1-10.2-10.2,10.18,10.18,0,0,1,10.2,10.2"/><path class="cls-3" d="M639,538.2A10.2,10.2,0,1,1,628.8,528,10.31,10.31,0,0,1,639,538.2"/><path class="cls-3" d="M618.7,544.4a10.2,10.2,0,1,1-10.2-10.2,10.31,10.31,0,0,1,10.2,10.2"/><path class="cls-3" d="M598.4,550.6a10.2,10.2,0,1,1-10.2-10.2,10.31,10.31,0,0,1,10.2,10.2"/><path class="cls-3" d="M781.1,572.1a10.2,10.2,0,1,1-10.2-10.2,10.18,10.18,0,0,1,10.2,10.2"/><path class="cls-3" d="M305.1,725.54a4,4,0,1,0-4-4,4,4,0,0,0,4,4"/><path class="cls-3" d="M314.8,725.54a4,4,0,1,0-4-4,4,4,0,0,0,4,4"/><path class="cls-3" d="M324.6,725.54a4,4,0,1,0-4-4,4,4,0,0,0,4,4"/><path class="cls-3" d="M334.3,725.54a4,4,0,1,0-4-4,4,4,0,0,0,4,4"/><path class="cls-3" d="M344.1,725.54a4,4,0,1,0-4-4,4,4,0,0,0,4,4"/><path class="cls-3" d="M353.8,725.54a4,4,0,1,0-4-4,4,4,0,0,0,4,4"/><path class="cls-3" d="M363.6,725.54a4,4,0,1,0-4-4,4,4,0,0,0,4,4"/><path class="cls-3" d="M373.3,725.54a4,4,0,1,0-4-4,4,4,0,0,0,4,4"/><path class="cls-3" d="M383.1,725.54a4,4,0,1,0-4-4,4,4,0,0,0,4,4"/><path class="cls-3" d="M392.8,725.54a4,4,0,1,0-4-4,4,4,0,0,0,4,4"/><path class="cls-3" d="M402.6,725.54a4,4,0,1,0-4-4,4,4,0,0,0,4,4"/><path class="cls-3" d="M412.3,725.54a4,4,0,1,0-4-4,4,4,0,0,0,4,4"/><path class="cls-3" d="M305.1,734.74a4,4,0,1,0-4-4,4,4,0,0,0,4,4"/><path class="cls-3" d="M314.8,734.74a4,4,0,1,0-4-4,4,4,0,0,0,4,4"/><path class="cls-3" d="M324.6,734.74a4,4,0,1,0-4-4,4,4,0,0,0,4,4"/><path class="cls-3" d="M334.3,734.74a4,4,0,1,0-4-4,4,4,0,0,0,4,4"/><path class="cls-3" d="M344.1,734.74a4,4,0,1,0-4-4,4,4,0,0,0,4,4"/><path class="cls-3" d="M353.8,734.74a4,4,0,1,0-4-4,4,4,0,0,0,4,4"/><path class="cls-3" d="M363.6,734.74a4,4,0,1,0-4-4,4,4,0,0,0,4,4"/><path class="cls-3" d="M373.3,734.74a4,4,0,1,0-4-4,4,4,0,0,0,4,4"/><path class="cls-3" d="M383.1,734.74a4,4,0,1,0-4-4,4,4,0,0,0,4,4"/><path class="cls-3" d="M392.8,734.74a4,4,0,1,0-4-4,4,4,0,0,0,4,4"/><path class="cls-3" d="M402.6,734.74a4,4,0,1,0-4-4,4,4,0,0,0,4,4"/><path class="cls-3" d="M412.3,734.74a4,4,0,1,0-4-4,4,4,0,0,0,4,4"/><path class="cls-3" d="M305.1,744a4,4,0,1,0-4-4,4,4,0,0,0,4,4"/><path class="cls-3" d="M314.8,744a4,4,0,1,0-4-4,4,4,0,0,0,4,4"/><path class="cls-3" d="M324.6,744a4,4,0,1,0-4-4,4,4,0,0,0,4,4"/><path class="cls-3" d="M334.3,744a4,4,0,1,0-4-4,4,4,0,0,0,4,4"/><path class="cls-3" d="M344.1,744a4,4,0,1,0-4-4,4,4,0,0,0,4,4"/><path class="cls-3" d="M353.8,744a4,4,0,1,0-4-4,4,4,0,0,0,4,4"/><path class="cls-3" d="M363.6,744a4,4,0,1,0-4-4,4,4,0,0,0,4,4"/><path class="cls-3" d="M373.3,744a4,4,0,1,0-4-4,4,4,0,0,0,4,4"/><path class="cls-3" d="M383.1,744a4,4,0,1,0-4-4,4,4,0,0,0,4,4"/><path class="cls-3" d="M392.8,744a4,4,0,1,0-4-4,4,4,0,0,0,4,4"/><path class="cls-3" d="M402.6,744a4,4,0,1,0-4-4,4,4,0,0,0,4,4"/><path class="cls-3" d="M412.3,744a4,4,0,1,0-4-4,4,4,0,0,0,4,4"/><path class="cls-3" d="M305.1,753.24a4,4,0,1,0-4-4,4,4,0,0,0,4,4"/><path class="cls-3" d="M314.8,753.24a4,4,0,1,0-4-4,4,4,0,0,0,4,4"/><path class="cls-3" d="M324.6,753.24a4,4,0,1,0-4-4,4,4,0,0,0,4,4"/><path class="cls-3" d="M334.3,753.24a4,4,0,1,0-4-4,4,4,0,0,0,4,4"/><path class="cls-3" d="M344.1,753.24a4,4,0,1,0-4-4,4,4,0,0,0,4,4"/><path class="cls-3" d="M353.8,753.24a4,4,0,1,0-4-4,4,4,0,0,0,4,4"/><path class="cls-3" d="M363.6,753.24a4,4,0,1,0-4-4,4,4,0,0,0,4,4"/><path class="cls-3" d="M373.3,753.24a4,4,0,1,0-4-4,4,4,0,0,0,4,4"/><path class="cls-3" d="M383.1,753.24a4,4,0,1,0-4-4,4,4,0,0,0,4,4"/><path class="cls-3" d="M392.8,753.24a4,4,0,1,0-4-4,4,4,0,0,0,4,4"/><path class="cls-3" d="M402.6,753.24a4,4,0,1,0-4-4,4,4,0,0,0,4,4"/><path class="cls-3" d="M412.3,753.24a4,4,0,1,0-4-4,4,4,0,0,0,4,4"/><path class="cls-3" d="M305.1,762.54a4,4,0,1,0-4-4,4,4,0,0,0,4,4"/><path class="cls-3" d="M314.8,762.54a4,4,0,1,0-4-4,4,4,0,0,0,4,4"/><path class="cls-3" d="M324.6,762.54a4,4,0,1,0-4-4,4,4,0,0,0,4,4"/><path class="cls-3" d="M334.3,762.54a4,4,0,1,0-4-4,4,4,0,0,0,4,4"/><path class="cls-3" d="M344.1,762.54a4,4,0,1,0-4-4,4,4,0,0,0,4,4"/><path class="cls-3" d="M353.8,762.54a4,4,0,1,0-4-4,4,4,0,0,0,4,4"/><path class="cls-3" d="M363.6,762.54a4,4,0,1,0-4-4,4,4,0,0,0,4,4"/><path class="cls-3" d="M373.3,762.54a4,4,0,1,0-4-4,4,4,0,0,0,4,4"/><path class="cls-3" d="M383.1,762.54a4,4,0,1,0-4-4,4,4,0,0,0,4,4"/><path class="cls-3" d="M392.8,762.54a4,4,0,1,0-4-4,4,4,0,0,0,4,4"/><path class="cls-3" d="M402.6,762.54a4,4,0,1,0-4-4,4,4,0,0,0,4,4"/><path class="cls-3" d="M412.3,762.54a4,4,0,1,0-4-4,4,4,0,0,0,4,4"/><path class="cls-3" d="M305.1,771.84a4,4,0,1,0-4-4,4,4,0,0,0,4,4"/><path class="cls-3" d="M314.8,771.84a4,4,0,1,0-4-4,4,4,0,0,0,4,4"/><path class="cls-3" d="M324.6,771.84a4,4,0,1,0-4-4,4,4,0,0,0,4,4"/><path class="cls-3" d="M334.3,771.84a4,4,0,1,0-4-4,4,4,0,0,0,4,4"/><path class="cls-3" d="M344.1,771.84a4,4,0,1,0-4-4,4,4,0,0,0,4,4"/><path class="cls-3" d="M353.8,771.84a4,4,0,1,0-4-4,4,4,0,0,0,4,4"/><path class="cls-3" d="M363.6,771.84a4,4,0,1,0-4-4,4,4,0,0,0,4,4"/><path class="cls-3" d="M373.3,771.84a4,4,0,1,0-4-4,4,4,0,0,0,4,4"/><path class="cls-3" d="M383.1,771.84a4,4,0,1,0-4-4,4,4,0,0,0,4,4"/><path class="cls-3" d="M392.8,771.84a4,4,0,1,0-4-4,4,4,0,0,0,4,4"/><path class="cls-3" d="M402.6,771.84a4,4,0,1,0-4-4,4,4,0,0,0,4,4"/><path class="cls-3" d="M412.3,771.84a4,4,0,1,0-4-4,4,4,0,0,0,4,4"/><path class="cls-3" d="M305.1,781a4,4,0,1,0-4-4,4,4,0,0,0,4,4"/><path class="cls-3" d="M314.8,781a4,4,0,1,0-4-4,4,4,0,0,0,4,4"/><path class="cls-3" d="M324.6,781a4,4,0,1,0-4-4,4,4,0,0,0,4,4"/><path class="cls-3" d="M334.3,781a4,4,0,1,0-4-4,4,4,0,0,0,4,4"/><path class="cls-3" d="M344.1,781a4,4,0,1,0-4-4,4,4,0,0,0,4,4"/><path class="cls-3" d="M353.8,781a4,4,0,1,0-4-4,4,4,0,0,0,4,4"/><path class="cls-3" d="M363.6,781a4,4,0,1,0-4-4,4,4,0,0,0,4,4"/><path class="cls-3" d="M373.3,781a4,4,0,1,0-4-4,4,4,0,0,0,4,4"/><path class="cls-3" d="M383.1,781a4,4,0,1,0-4-4,4,4,0,0,0,4,4"/><path class="cls-3" d="M392.8,781a4,4,0,1,0-4-4,4,4,0,0,0,4,4"/><path class="cls-3" d="M402.6,781a4,4,0,1,0-4-4,4,4,0,0,0,4,4"/><path class="cls-3" d="M412.3,781a4,4,0,1,0-4-4,4,4,0,0,0,4,4"/><path class="cls-3" d="M305.1,790.34a4,4,0,1,0-4-4,4,4,0,0,0,4,4"/><path class="cls-3" d="M314.8,790.34a4,4,0,1,0-4-4,4,4,0,0,0,4,4"/><path class="cls-3" d="M324.6,790.34a4,4,0,1,0-4-4,4,4,0,0,0,4,4"/><path class="cls-3" d="M334.3,790.34a4,4,0,1,0-4-4,4,4,0,0,0,4,4"/><path class="cls-3" d="M344.1,790.34a4,4,0,1,0-4-4,4,4,0,0,0,4,4"/><path class="cls-3" d="M353.8,790.34a4,4,0,1,0-4-4,4,4,0,0,0,4,4"/><path class="cls-3" d="M363.6,790.34a4,4,0,1,0-4-4,4,4,0,0,0,4,4"/><path class="cls-3" d="M373.3,790.34a4,4,0,1,0-4-4,4,4,0,0,0,4,4"/><path class="cls-3" d="M383.1,790.34a4,4,0,1,0-4-4,4,4,0,0,0,4,4"/><path class="cls-3" d="M392.8,790.34a4,4,0,1,0-4-4,4,4,0,0,0,4,4"/><path class="cls-3" d="M402.6,790.34a4,4,0,1,0-4-4,4,4,0,0,0,4,4"/><path class="cls-3" d="M412.3,790.34a4,4,0,1,0-4-4,4,4,0,0,0,4,4"/><path class="cls-3" d="M305.1,799.64a4,4,0,1,0-4-4,4,4,0,0,0,4,4"/><path class="cls-3" d="M314.8,799.64a4,4,0,1,0-4-4,4,4,0,0,0,4,4"/><path class="cls-3" d="M324.6,799.64a4,4,0,1,0-4-4,4,4,0,0,0,4,4"/><path class="cls-3" d="M334.3,799.64a4,4,0,1,0-4-4,4,4,0,0,0,4,4"/><path class="cls-3" d="M344.1,799.64a4,4,0,1,0-4-4,4,4,0,0,0,4,4"/><path class="cls-3" d="M353.8,799.64a4,4,0,1,0-4-4,4,4,0,0,0,4,4"/><path class="cls-3" d="M363.6,799.64a4,4,0,1,0-4-4,4,4,0,0,0,4,4"/><path class="cls-3" d="M373.3,799.64a4,4,0,1,0-4-4,4,4,0,0,0,4,4"/><path class="cls-3" d="M383.1,799.64a4,4,0,1,0-4-4,4,4,0,0,0,4,4"/><path class="cls-3" d="M392.8,799.64a4,4,0,1,0-4-4,4,4,0,0,0,4,4"/><path class="cls-3" d="M402.6,799.64a4,4,0,1,0-4-4,4,4,0,0,0,4,4"/><path class="cls-3" d="M412.3,799.64a4,4,0,1,0-4-4,4,4,0,0,0,4,4"/><path class="cls-3" d="M35.15,701.93c-6.8,5.4-7.4,13.7-10.7,18.9s-10.1,11.1-11.8,15.2.2,13-1.2,16-6.5,11.1-6,17.5,3.7,13,4.6,17.8.4,10,3,13,5.2,5.9,9.3,7.6,8,6.9,12.3,8.4,9.4,1.1,17-1.9,16.3-7.8,19.7-7.8,14.6.4,21.9-4.3,7.8-19.9,5.6-26.2-8.2-22.3-10.8-26.7-7.4-6.3-7.1-10.8,2.6-13.9,1.1-20.3-6.7-15.3-12.6-15.7-12.1,1.2-16.2-.4-13.5-4-18.1-.3"/></g><g id="Layer_2" data-name="Layer 2"><rect class="cls-4" width="1000" height="1000"/><line class="cls-4" y1="900" x2="1000" y2="900"/><line class="cls-4" y1="800" x2="1000" y2="800"/><line class="cls-4" y1="700" x2="1000" y2="700"/><line class="cls-4" y1="600" x2="1000" y2="600"/><line class="cls-4" y1="500" x2="1000" y2="500"/><line class="cls-4" y1="400" x2="1000" y2="400"/><line class="cls-4" y1="300" x2="1000" y2="300"/><line class="cls-4" y1="200" x2="1000" y2="200"/><line class="cls-4" y1="100" x2="1000" y2="100"/><line class="cls-4" x1="900" x2="900" y2="1000"/><line class="cls-4" x1="800" x2="800" y2="1000"/><line class="cls-4" x1="700" x2="700" y2="1000"/><line class="cls-4" x1="600" x2="600" y2="1000"/><line class="cls-4" x1="500" x2="500" y2="1000"/><line class="cls-4" x1="400" x2="400" y2="1000"/><line class="cls-4" x1="300" x2="300" y2="1000"/><line class="cls-4" x1="200" x2="200" y2="1000"/><line class="cls-4" x1="100" x2="100" y2="1000"/></g></svg>