<?xml version="1.0" encoding="utf-8"?>
<!-- Generator: Adobe Illustrator 23.0.4, SVG Export Plug-In . SVG Version: 6.00 Build 0)  -->
<svg version="1.1" id="Layer_1" xmlns="http://www.w3.org/2000/svg" xmlns:xlink="http://www.w3.org/1999/xlink" x="0px" y="0px"
	 viewBox="0 0 94.6 117.2" style="enable-background:new 0 0 94.6 117.2;" xml:space="preserve">
<style type="text/css">
	.st0{fill:#E60013;}
</style>
<g id="레이어_1">
	<path class="st0" d="M29.7,1.9C22.9,7.3,22.3,15.6,19,20.8S8.9,31.9,7.2,36S7.4,49,6,52s-6.5,11.1-6,17.5s3.7,13,4.6,17.8
		s0.4,10,3,13s5.2,5.9,9.3,7.6s8,6.9,12.3,8.4s9.4,1.1,17-1.9s16.3-7.8,19.7-7.8s14.6,0.4,21.9-4.3s7.8-19.9,5.6-26.2
		s-8.2-22.3-10.8-26.7s-7.4-6.3-7.1-10.8s2.6-13.9,1.1-20.3S69.9,3,64,2.6S51.9,3.8,47.8,2.2S34.4-1.8,29.7,1.9"/>
</g>
</svg>
